<svg xmlns="http://www.w3.org/2000/svg" xmlns:xlink="http://www.w3.org/1999/xlink" width="480" zoomAndPan="magnify" viewBox="0 0 360 359.999987" height="480" preserveAspectRatio="xMidYMid meet" version="1.0"><defs><clipPath id="743a190846"><path d="M 72.3125 169 L 291.3125 169 L 291.3125 330.75 L 72.3125 330.75 Z M 72.3125 169 " clip-rule="nonzero"/></clipPath></defs><path fill="#3affba" d="M 244.617188 98.96875 C 244.617188 64.261719 216.375 36.019531 181.667969 36.019531 C 146.957031 36.019531 118.714844 64.261719 118.714844 98.96875 C 118.714844 133.582031 146.957031 161.824219 181.667969 161.824219 C 216.375 161.824219 244.617188 133.582031 244.617188 98.96875 Z M 244.617188 98.96875 " fill-opacity="1" fill-rule="nonzero"/><g clip-path="url(#743a190846)"><path fill="#3affba" d="M 72.3125 278.5 L 72.3125 297.519531 C 72.3125 315.871094 87.242188 330.800781 105.59375 330.800781 L 257.738281 330.800781 C 276.089844 330.800781 291.019531 315.871094 291.019531 297.519531 L 291.019531 278.5 C 291.019531 218.210938 241.953125 169.148438 181.667969 169.148438 C 121.378906 169.148438 72.3125 218.210938 72.3125 278.5 Z M 72.3125 278.5 " fill-opacity="1" fill-rule="nonzero"/></g></svg>