<svg xmlns="http://www.w3.org/2000/svg" xmlns:xlink="http://www.w3.org/1999/xlink" width="480" zoomAndPan="magnify" viewBox="0 0 360 359.999987" height="480" preserveAspectRatio="xMidYMid meet" version="1.0"><defs><clipPath id="fd09974e17"><path d="M 219 225 L 318.339844 225 L 318.339844 324 L 219 324 Z M 219 225 " clip-rule="nonzero"/></clipPath><clipPath id="068a73d344"><path d="M 57.339844 63 L 296 63 L 296 149 L 57.339844 149 Z M 57.339844 63 " clip-rule="nonzero"/></clipPath><clipPath id="48640b7346"><path d="M 57.339844 134 L 296 134 L 296 302 L 57.339844 302 Z M 57.339844 134 " clip-rule="nonzero"/></clipPath></defs><g clip-path="url(#fd09974e17)"><path fill="#3ffcb7" d="M 268.90625 225.132812 C 282.574219 225.132812 294.890625 230.699219 303.832031 239.640625 C 312.773438 248.582031 318.339844 260.898438 318.339844 274.5625 C 318.339844 288.230469 312.773438 300.546875 303.832031 309.488281 C 294.890625 318.429688 282.574219 323.996094 268.90625 323.996094 C 255.410156 323.996094 242.925781 318.429688 233.984375 309.488281 C 225.042969 300.546875 219.644531 288.230469 219.644531 274.5625 C 219.644531 260.898438 225.042969 248.582031 233.984375 239.640625 C 242.925781 230.699219 255.410156 225.132812 268.90625 225.132812 Z M 251.359375 272.035156 C 250.011719 270.683594 247.988281 270.683594 246.636719 272.035156 C 245.289062 273.214844 245.289062 275.40625 246.636719 276.757812 L 260.132812 290.253906 C 261.316406 291.605469 263.507812 291.605469 264.859375 290.253906 L 291.347656 263.765625 C 292.695312 262.417969 292.695312 260.222656 291.347656 259.042969 C 289.996094 257.691406 287.972656 257.691406 286.621094 259.042969 L 262.496094 283 Z M 251.359375 272.035156 " fill-opacity="1" fill-rule="nonzero"/></g><g clip-path="url(#068a73d344)"><path fill="#3ffcb7" d="M 64.089844 63.164062 L 288.476562 63.164062 C 292.191406 63.164062 295.226562 66.203125 295.226562 69.914062 L 295.226562 141.28125 C 295.226562 144.992188 292.191406 148.027344 288.476562 148.027344 L 64.089844 148.027344 C 60.378906 148.027344 57.339844 144.992188 57.339844 141.28125 L 57.339844 69.914062 C 57.339844 66.203125 60.378906 63.164062 64.089844 63.164062 Z M 281.730469 76.664062 L 70.835938 76.664062 L 70.835938 134.53125 L 281.730469 134.53125 Z M 281.730469 76.664062 " fill-opacity="1" fill-rule="nonzero"/></g><g clip-path="url(#48640b7346)"><path fill="#3ffcb7" d="M 64.089844 134.53125 L 288.476562 134.53125 C 292.191406 134.53125 295.226562 137.570312 295.226562 141.28125 L 295.226562 236.601562 C 295.226562 240.316406 292.191406 243.351562 288.476562 243.351562 C 287.128906 243.351562 285.945312 243.015625 284.933594 242.507812 C 282.574219 241.160156 280.042969 240.316406 277.511719 239.640625 C 274.8125 238.964844 271.945312 238.628906 268.90625 238.628906 C 259.121094 238.628906 250.011719 242.675781 243.601562 249.257812 C 237.019531 255.667969 233.140625 264.609375 233.140625 274.5625 C 233.140625 277.601562 233.476562 280.46875 234.152344 283.167969 C 234.828125 286.035156 235.839844 288.734375 237.1875 291.265625 C 238.875 294.472656 237.527344 298.519531 234.320312 300.378906 C 233.308594 300.882812 232.128906 301.050781 231.113281 301.050781 L 64.089844 301.050781 C 60.378906 301.050781 57.339844 298.015625 57.339844 294.304688 L 57.339844 141.28125 C 57.339844 137.570312 60.378906 134.53125 64.089844 134.53125 Z M 281.730469 148.027344 L 70.835938 148.027344 L 70.835938 287.554688 L 221.328125 287.554688 C 221.160156 287.21875 221.160156 286.710938 220.992188 286.375 C 220.148438 282.492188 219.644531 278.613281 219.644531 274.5625 C 219.644531 260.898438 225.042969 248.582031 233.984375 239.640625 C 242.925781 230.699219 255.410156 225.132812 268.90625 225.132812 C 272.957031 225.132812 276.835938 225.636719 280.546875 226.648438 C 281.054688 226.648438 281.390625 226.816406 281.730469 226.816406 Z M 281.730469 148.027344 " fill-opacity="1" fill-rule="nonzero"/></g><path fill="#3ffcb7" d="M 120.777344 175.527344 L 100.867188 175.527344 L 100.867188 195.4375 L 120.777344 195.4375 Z M 120.777344 175.527344 " fill-opacity="1" fill-rule="nonzero"/><path fill="#3ffcb7" d="M 94.121094 162.03125 L 127.523438 162.03125 C 131.238281 162.03125 134.273438 165.070312 134.273438 168.78125 L 134.273438 202.1875 C 134.273438 206.066406 131.238281 208.933594 127.523438 208.933594 L 94.121094 208.933594 C 90.40625 208.933594 87.371094 206.066406 87.371094 202.1875 L 87.371094 168.78125 C 87.371094 165.070312 90.40625 162.03125 94.121094 162.03125 Z M 94.121094 162.03125 " fill-opacity="1" fill-rule="nonzero"/><path fill="#3ffcb7" d="M 186.238281 175.527344 L 166.328125 175.527344 L 166.328125 195.4375 L 186.238281 195.4375 Z M 186.238281 175.527344 " fill-opacity="1" fill-rule="nonzero"/><path fill="#3ffcb7" d="M 159.582031 162.03125 L 192.984375 162.03125 C 196.699219 162.03125 199.734375 165.070312 199.734375 168.78125 L 199.734375 202.1875 C 199.734375 206.066406 196.699219 208.933594 192.984375 208.933594 L 159.582031 208.933594 C 155.867188 208.933594 152.832031 206.066406 152.832031 202.1875 L 152.832031 168.78125 C 152.832031 165.070312 155.867188 162.03125 159.582031 162.03125 Z M 159.582031 162.03125 " fill-opacity="1" fill-rule="nonzero"/><path fill="#3ffcb7" d="M 251.699219 175.527344 L 231.789062 175.527344 L 231.789062 195.4375 L 251.699219 195.4375 Z M 251.699219 175.527344 " fill-opacity="1" fill-rule="nonzero"/><path fill="#3ffcb7" d="M 225.042969 162.03125 L 258.445312 162.03125 C 262.160156 162.03125 265.195312 165.070312 265.195312 168.78125 L 265.195312 202.1875 C 265.195312 206.066406 262.160156 208.933594 258.445312 208.933594 L 225.042969 208.933594 C 221.328125 208.933594 218.292969 206.066406 218.292969 202.1875 L 218.292969 168.78125 C 218.292969 165.070312 221.328125 162.03125 225.042969 162.03125 Z M 225.042969 162.03125 " fill-opacity="1" fill-rule="nonzero"/><path fill="#3ffcb7" d="M 120.777344 239.976562 L 100.867188 239.976562 L 100.867188 260.054688 L 120.777344 260.054688 Z M 120.777344 239.976562 " fill-opacity="1" fill-rule="nonzero"/><path fill="#3ffcb7" d="M 94.121094 226.480469 L 127.523438 226.480469 C 131.238281 226.480469 134.273438 229.515625 134.273438 233.230469 L 134.273438 266.804688 C 134.273438 270.515625 131.238281 273.550781 127.523438 273.550781 L 94.121094 273.550781 C 90.40625 273.550781 87.371094 270.515625 87.371094 266.804688 L 87.371094 233.230469 C 87.371094 229.515625 90.40625 226.480469 94.121094 226.480469 Z M 94.121094 226.480469 " fill-opacity="1" fill-rule="nonzero"/><path fill="#3ffcb7" d="M 186.238281 239.976562 L 166.328125 239.976562 L 166.328125 260.054688 L 186.238281 260.054688 Z M 186.238281 239.976562 " fill-opacity="1" fill-rule="nonzero"/><path fill="#3ffcb7" d="M 159.582031 226.480469 L 192.984375 226.480469 C 196.699219 226.480469 199.734375 229.515625 199.734375 233.230469 L 199.734375 266.804688 C 199.734375 270.515625 196.699219 273.550781 192.984375 273.550781 L 159.582031 273.550781 C 155.867188 273.550781 152.832031 270.515625 152.832031 266.804688 L 152.832031 233.230469 C 152.832031 229.515625 155.867188 226.480469 159.582031 226.480469 Z M 159.582031 226.480469 " fill-opacity="1" fill-rule="nonzero"/><path fill="#3ffcb7" d="M 128.199219 42.75 C 128.199219 39.039062 125.164062 36.003906 121.453125 36.003906 C 117.738281 36.003906 114.703125 39.039062 114.703125 42.75 L 114.703125 97.078125 C 114.703125 100.789062 117.738281 103.824219 121.453125 103.824219 C 125.164062 103.824219 128.199219 100.789062 128.199219 97.078125 Z M 128.199219 42.75 " fill-opacity="1" fill-rule="nonzero"/><path fill="#3ffcb7" d="M 237.863281 42.75 C 237.863281 39.039062 234.828125 36.003906 231.113281 36.003906 C 227.402344 36.003906 224.367188 39.039062 224.367188 42.75 L 224.367188 97.078125 C 224.367188 100.789062 227.402344 103.824219 231.113281 103.824219 C 234.828125 103.824219 237.863281 100.789062 237.863281 97.078125 Z M 237.863281 42.75 " fill-opacity="1" fill-rule="nonzero"/></svg>