<svg xmlns="http://www.w3.org/2000/svg" xmlns:xlink="http://www.w3.org/1999/xlink" width="480" zoomAndPan="magnify" viewBox="0 0 360 359.999987" height="480" preserveAspectRatio="xMidYMid meet" version="1.0"><defs><clipPath id="b0a5602a78"><path d="M 39 76.886719 L 319 76.886719 L 319 190 L 39 190 Z M 39 76.886719 " clip-rule="nonzero"/></clipPath><clipPath id="e9705cd545"><path d="M 35.0625 111 L 323.8125 111 L 323.8125 283.136719 L 35.0625 283.136719 Z M 35.0625 111 " clip-rule="nonzero"/></clipPath></defs><g clip-path="url(#b0a5602a78)"><path fill="#3affba" d="M 160.625 183.382812 C 161.96875 184.414062 163.390625 185.328125 164.886719 186.128906 C 166.378906 186.929688 167.929688 187.601562 169.535156 188.144531 C 171.140625 188.691406 172.78125 189.101562 174.453125 189.378906 C 176.125 189.652344 177.808594 189.792969 179.503906 189.792969 C 181.199219 189.792969 182.882812 189.652344 184.558594 189.378906 C 186.230469 189.101562 187.871094 188.691406 189.476562 188.144531 C 191.078125 187.601562 192.628906 186.929688 194.125 186.128906 C 195.621094 185.328125 197.039062 184.414062 198.386719 183.382812 L 318.203125 90.023438 C 316.78125 87.992188 315.136719 86.164062 313.273438 84.53125 C 311.410156 82.898438 309.378906 81.507812 307.183594 80.367188 C 304.984375 79.222656 302.683594 78.355469 300.277344 77.769531 C 297.871094 77.179688 295.429688 76.886719 292.949219 76.886719 L 66.101562 76.886719 C 64.792969 76.886719 63.492188 76.972656 62.195312 77.140625 C 60.902344 77.3125 59.621094 77.5625 58.355469 77.890625 C 57.089844 78.222656 55.851562 78.632812 54.640625 79.121094 C 53.429688 79.609375 52.253906 80.171875 51.113281 80.8125 C 49.972656 81.449219 48.875 82.15625 47.824219 82.933594 C 46.773438 83.710938 45.777344 84.550781 44.832031 85.457031 C 43.886719 86.359375 43.003906 87.320312 42.183594 88.335938 C 41.363281 89.351562 40.609375 90.414062 39.921875 91.527344 Z M 160.625 183.382812 " fill-opacity="1" fill-rule="nonzero"/></g><g clip-path="url(#e9705cd545)"><path fill="#3affba" d="M 211.015625 199.722656 C 209.898438 200.582031 208.746094 201.394531 207.5625 202.160156 C 206.378906 202.921875 205.164062 203.636719 203.921875 204.300781 C 202.679688 204.96875 201.410156 205.582031 200.117188 206.140625 C 198.824219 206.703125 197.507812 207.210938 196.175781 207.664062 C 194.839844 208.117188 193.488281 208.515625 192.121094 208.855469 C 190.753906 209.199219 189.375 209.484375 187.984375 209.714844 C 186.59375 209.945312 185.195312 210.117188 183.789062 210.234375 C 182.382812 210.347656 180.976562 210.40625 179.566406 210.40625 C 178.15625 210.40625 176.75 210.347656 175.34375 210.234375 C 173.941406 210.117188 172.542969 209.945312 171.152344 209.714844 C 169.761719 209.484375 168.382812 209.199219 167.011719 208.855469 C 165.644531 208.515625 164.296875 208.117188 162.960938 207.664062 C 161.625 207.210938 160.3125 206.703125 159.019531 206.140625 C 157.722656 205.582031 156.457031 204.96875 155.214844 204.300781 C 153.96875 203.636719 152.757812 202.921875 151.570312 202.160156 C 150.386719 201.394531 149.234375 200.582031 148.117188 199.722656 L 35.167969 113.832031 L 35.167969 252.179688 C 35.167969 253.191406 35.21875 254.203125 35.316406 255.210938 C 35.414062 256.21875 35.5625 257.21875 35.761719 258.214844 C 35.960938 259.207031 36.207031 260.1875 36.5 261.15625 C 36.792969 262.128906 37.132812 263.078125 37.523438 264.015625 C 37.910156 264.953125 38.34375 265.867188 38.820312 266.761719 C 39.296875 267.652344 39.816406 268.523438 40.378906 269.363281 C 40.945312 270.207031 41.546875 271.019531 42.1875 271.800781 C 42.832031 272.585938 43.511719 273.335938 44.226562 274.050781 C 44.945312 274.769531 45.695312 275.449219 46.476562 276.089844 C 47.261719 276.734375 48.074219 277.335938 48.914062 277.898438 C 49.757812 278.460938 50.625 278.980469 51.519531 279.460938 C 52.414062 279.9375 53.328125 280.371094 54.261719 280.757812 C 55.199219 281.144531 56.152344 281.484375 57.121094 281.78125 C 58.089844 282.074219 59.074219 282.320312 60.066406 282.519531 C 61.058594 282.714844 62.0625 282.863281 63.070312 282.964844 C 64.078125 283.0625 65.089844 283.113281 66.101562 283.113281 L 292.949219 283.113281 C 293.964844 283.113281 294.972656 283.0625 295.984375 282.964844 C 296.992188 282.863281 297.992188 282.714844 298.984375 282.519531 C 299.980469 282.320312 300.960938 282.074219 301.929688 281.78125 C 302.898438 281.484375 303.851562 281.144531 304.789062 280.757812 C 305.722656 280.371094 306.640625 279.9375 307.53125 279.460938 C 308.425781 278.980469 309.292969 278.460938 310.136719 277.898438 C 310.980469 277.335938 311.792969 276.734375 312.574219 276.089844 C 313.359375 275.449219 314.109375 274.769531 314.824219 274.050781 C 315.539062 273.335938 316.21875 272.585938 316.863281 271.800781 C 317.503906 271.019531 318.109375 270.207031 318.671875 269.363281 C 319.234375 268.523438 319.753906 267.652344 320.230469 266.761719 C 320.710938 265.867188 321.140625 264.953125 321.53125 264.015625 C 321.917969 263.078125 322.257812 262.128906 322.550781 261.15625 C 322.847656 260.1875 323.09375 259.207031 323.289062 258.214844 C 323.488281 257.21875 323.636719 256.21875 323.734375 255.210938 C 323.835938 254.203125 323.882812 253.191406 323.882812 252.179688 L 323.882812 111.789062 Z M 211.015625 199.722656 " fill-opacity="1" fill-rule="nonzero"/></g></svg>