<svg xmlns="http://www.w3.org/2000/svg" xmlns:xlink="http://www.w3.org/1999/xlink" width="480" zoomAndPan="magnify" viewBox="0 0 360 359.999987" height="480" preserveAspectRatio="xMidYMid meet" version="1.0"><defs><clipPath id="15cf9ebad4"><path d="M 96.308594 28 L 240.308594 28 L 240.308594 332 L 96.308594 332 Z M 96.308594 28 " clip-rule="nonzero"/></clipPath></defs><g clip-path="url(#15cf9ebad4)"><path fill="#3ffcb7" d="M 206.960938 78.277344 L 240.144531 78.277344 L 240.144531 28.246094 L 197.773438 28.246094 L 197.773438 28.4375 C 142.0625 30.480469 130.578125 61.683594 129.621094 94.675781 L 129.492188 94.675781 L 129.492188 129.390625 L 96.308594 129.390625 L 96.308594 179.484375 L 129.492188 179.484375 L 129.492188 331.742188 L 189.03125 331.742188 L 189.03125 179.484375 L 231.722656 179.484375 L 240.144531 129.390625 L 189.03125 129.390625 L 189.03125 98.3125 C 189.03125 87.273438 196.433594 78.277344 206.960938 78.277344 Z M 206.960938 78.277344 " fill-opacity="1" fill-rule="nonzero"/></g></svg>