<svg xmlns="http://www.w3.org/2000/svg" xmlns:xlink="http://www.w3.org/1999/xlink" width="480" zoomAndPan="magnify" viewBox="0 0 360 359.999987" height="480" preserveAspectRatio="xMidYMid meet" version="1.0"><defs><clipPath id="2089ea3726"><path d="M 126 118 L 335.605469 118 L 335.605469 314.671875 L 126 314.671875 Z M 126 118 " clip-rule="nonzero"/></clipPath><clipPath id="18d87e3cf1"><path d="M 43.105469 43.171875 L 294 43.171875 L 294 273 L 43.105469 273 Z M 43.105469 43.171875 " clip-rule="nonzero"/></clipPath></defs><g clip-path="url(#2089ea3726)"><path fill="#3affba" d="M 314.59375 118.167969 L 314.59375 199.824219 C 314.59375 201.535156 314.511719 203.238281 314.34375 204.941406 C 314.175781 206.644531 313.925781 208.332031 313.589844 210.011719 C 313.257812 211.6875 312.84375 213.34375 312.34375 214.980469 C 311.847656 216.617188 311.273438 218.222656 310.621094 219.804688 C 309.964844 221.382812 309.234375 222.925781 308.429688 224.4375 C 307.621094 225.945312 306.746094 227.410156 305.796875 228.832031 C 304.84375 230.25 303.828125 231.625 302.742188 232.945312 C 301.65625 234.265625 300.511719 235.53125 299.300781 236.742188 C 298.09375 237.949219 296.828125 239.097656 295.503906 240.183594 C 294.183594 241.265625 292.8125 242.285156 291.390625 243.234375 C 289.96875 244.183594 288.503906 245.0625 286.996094 245.867188 C 285.488281 246.675781 283.945312 247.40625 282.363281 248.058594 C 280.785156 248.714844 279.175781 249.289062 277.539062 249.785156 C 275.902344 250.28125 274.246094 250.695312 272.570312 251.03125 C 270.894531 251.363281 269.203125 251.613281 267.503906 251.78125 C 265.800781 251.949219 264.09375 252.035156 262.382812 252.035156 L 126.640625 252.035156 L 126.640625 262.476562 C 126.644531 263.5 126.695312 264.523438 126.800781 265.542969 C 126.902344 266.5625 127.054688 267.574219 127.257812 268.582031 C 127.460938 269.585938 127.710938 270.578125 128.011719 271.558594 C 128.308594 272.539062 128.65625 273.503906 129.050781 274.449219 C 129.445312 275.394531 129.882812 276.320312 130.367188 277.222656 C 130.851562 278.128906 131.378906 279.003906 131.949219 279.855469 C 132.519531 280.707031 133.128906 281.53125 133.78125 282.324219 C 134.429688 283.113281 135.117188 283.875 135.84375 284.597656 C 136.566406 285.324219 137.328125 286.011719 138.117188 286.660156 C 138.910156 287.3125 139.734375 287.921875 140.585938 288.492188 C 141.4375 289.0625 142.316406 289.589844 143.21875 290.074219 C 144.121094 290.558594 145.046875 290.996094 145.992188 291.390625 C 146.941406 291.785156 147.902344 292.132812 148.882812 292.429688 C 149.863281 292.730469 150.855469 292.980469 151.863281 293.183594 C 152.867188 293.386719 153.878906 293.539062 154.898438 293.640625 C 155.917969 293.746094 156.941406 293.796875 157.964844 293.800781 L 278.359375 293.800781 C 280.015625 293.820312 281.582031 294.203125 283.058594 294.949219 L 320.335938 313.535156 C 321.816406 314.28125 323.382812 314.664062 325.035156 314.683594 C 327.027344 314.683594 328.871094 314.160156 330.570312 313.117188 C 331.320312 312.648438 332.003906 312.089844 332.613281 311.445312 C 333.222656 310.804688 333.746094 310.09375 334.171875 309.316406 C 334.601562 308.539062 334.929688 307.722656 335.148438 306.863281 C 335.371094 306.003906 335.480469 305.128906 335.476562 304.242188 L 335.476562 147.617188 C 335.472656 146.007812 335.34375 144.414062 335.09375 142.824219 C 334.84375 141.238281 334.476562 139.679688 333.984375 138.152344 C 333.496094 136.621094 332.890625 135.140625 332.175781 133.703125 C 331.457031 132.265625 330.632812 130.890625 329.703125 129.582031 C 328.773438 128.269531 327.75 127.039062 326.632812 125.886719 C 325.511719 124.734375 324.3125 123.675781 323.03125 122.707031 C 321.75 121.738281 320.402344 120.875 318.988281 120.113281 C 317.574219 119.351562 316.109375 118.703125 314.59375 118.167969 Z M 314.59375 118.167969 " fill-opacity="1" fill-rule="nonzero"/></g><g clip-path="url(#18d87e3cf1)"><path fill="#3affba" d="M 293.710938 199.824219 L 293.710938 74.523438 C 293.710938 73.496094 293.660156 72.472656 293.558594 71.453125 C 293.457031 70.429688 293.308594 69.417969 293.109375 68.410156 C 292.90625 67.40625 292.660156 66.410156 292.359375 65.429688 C 292.0625 64.449219 291.71875 63.484375 291.324219 62.535156 C 290.933594 61.585938 290.496094 60.660156 290.011719 59.753906 C 289.527344 58.851562 289 57.972656 288.429688 57.117188 C 287.859375 56.265625 287.25 55.441406 286.597656 54.648438 C 285.949219 53.855469 285.261719 53.097656 284.535156 52.371094 C 283.808594 51.648438 283.050781 50.957031 282.257812 50.308594 C 281.464844 49.65625 280.640625 49.046875 279.789062 48.476562 C 278.933594 47.90625 278.054688 47.378906 277.152344 46.894531 C 276.246094 46.414062 275.320312 45.972656 274.371094 45.582031 C 273.425781 45.1875 272.460938 44.84375 271.476562 44.546875 C 270.496094 44.25 269.503906 44 268.496094 43.800781 C 267.488281 43.597656 266.476562 43.449219 265.453125 43.347656 C 264.433594 43.246094 263.410156 43.195312 262.382812 43.195312 L 74.433594 43.195312 C 73.40625 43.195312 72.382812 43.246094 71.363281 43.347656 C 70.339844 43.449219 69.328125 43.597656 68.320312 43.800781 C 67.3125 44 66.320312 44.25 65.339844 44.546875 C 64.355469 44.84375 63.390625 45.1875 62.445312 45.582031 C 61.496094 45.972656 60.570312 46.414062 59.664062 46.894531 C 58.761719 47.378906 57.882812 47.90625 57.027344 48.476562 C 56.175781 49.046875 55.351562 49.65625 54.558594 50.308594 C 53.765625 50.957031 53.007812 51.648438 52.28125 52.371094 C 51.554688 53.097656 50.867188 53.855469 50.21875 54.648438 C 49.566406 55.441406 48.957031 56.265625 48.386719 57.117188 C 47.816406 57.972656 47.289062 58.851562 46.804688 59.753906 C 46.320312 60.660156 45.882812 61.585938 45.492188 62.535156 C 45.097656 63.484375 44.753906 64.449219 44.457031 65.429688 C 44.15625 66.410156 43.910156 67.40625 43.707031 68.410156 C 43.507812 69.417969 43.359375 70.429688 43.257812 71.453125 C 43.15625 72.472656 43.105469 73.496094 43.105469 74.523438 L 43.105469 262.476562 C 43.105469 263.460938 43.242188 264.421875 43.515625 265.367188 C 43.785156 266.3125 44.183594 267.203125 44.707031 268.035156 C 45.230469 268.871094 45.859375 269.613281 46.59375 270.269531 C 47.328125 270.921875 48.136719 271.464844 49.023438 271.890625 C 49.910156 272.316406 50.839844 272.613281 51.808594 272.773438 C 52.78125 272.9375 53.753906 272.964844 54.730469 272.855469 C 55.707031 272.742188 56.652344 272.496094 57.558594 272.121094 C 58.46875 271.742188 59.304688 271.246094 60.074219 270.628906 L 106.5625 233.4375 C 107.484375 232.699219 108.503906 232.132812 109.621094 231.742188 C 110.734375 231.347656 111.882812 231.152344 113.066406 231.148438 L 262.382812 231.148438 C 263.410156 231.148438 264.433594 231.097656 265.457031 231 C 266.476562 230.898438 267.488281 230.75 268.496094 230.546875 C 269.503906 230.347656 270.496094 230.097656 271.476562 229.800781 C 272.460938 229.503906 273.425781 229.15625 274.371094 228.765625 C 275.320312 228.371094 276.246094 227.933594 277.152344 227.449219 C 278.054688 226.96875 278.933594 226.441406 279.789062 225.871094 C 280.640625 225.300781 281.464844 224.691406 282.257812 224.039062 C 283.050781 223.386719 283.808594 222.699219 284.535156 221.976562 C 285.261719 221.25 285.949219 220.488281 286.597656 219.695312 C 287.25 218.902344 287.859375 218.082031 288.429688 217.226562 C 289 216.375 289.527344 215.496094 290.011719 214.589844 C 290.496094 213.6875 290.933594 212.761719 291.324219 211.8125 C 291.71875 210.863281 292.0625 209.898438 292.359375 208.917969 C 292.660156 207.9375 292.90625 206.941406 293.109375 205.9375 C 293.308594 204.929688 293.457031 203.914062 293.558594 202.894531 C 293.660156 201.875 293.710938 200.851562 293.710938 199.824219 Z M 178.015625 182.910156 C 177.539062 184.21875 176.808594 185.371094 175.824219 186.355469 C 174.835938 187.34375 173.6875 188.074219 172.375 188.546875 C 171.113281 189.105469 169.789062 189.382812 168.40625 189.382812 C 167.027344 189.382812 165.703125 189.105469 164.441406 188.546875 C 163.128906 188.074219 161.980469 187.34375 160.992188 186.355469 C 160.007812 185.371094 159.277344 184.21875 158.800781 182.910156 C 158.261719 181.640625 157.984375 180.320312 157.964844 178.941406 C 157.988281 177.558594 158.257812 176.226562 158.78125 174.949219 C 159.304688 173.667969 160.042969 172.527344 160.996094 171.527344 C 162.015625 170.597656 163.167969 169.867188 164.441406 169.335938 C 165.699219 168.757812 167.023438 168.472656 168.40625 168.472656 C 169.792969 168.472656 171.117188 168.757812 172.375 169.335938 C 173.648438 169.867188 174.800781 170.597656 175.820312 171.527344 C 176.785156 172.523438 177.527344 173.660156 178.050781 174.941406 C 178.574219 176.222656 178.839844 177.554688 178.851562 178.941406 C 178.832031 180.320312 178.554688 181.640625 178.015625 182.910156 Z M 180.007812 146.363281 C 179.429688 146.710938 178.980469 147.179688 178.664062 147.777344 C 178.347656 148.375 178.207031 149.007812 178.246094 149.683594 C 178.246094 150.367188 178.175781 151.046875 178.042969 151.71875 C 177.910156 152.390625 177.710938 153.046875 177.449219 153.679688 C 177.1875 154.3125 176.867188 154.914062 176.484375 155.484375 C 176.105469 156.054688 175.671875 156.582031 175.1875 157.066406 C 174.703125 157.550781 174.171875 157.984375 173.605469 158.363281 C 173.035156 158.746094 172.433594 159.066406 171.796875 159.328125 C 171.164062 159.59375 170.511719 159.789062 169.839844 159.925781 C 169.167969 160.058594 168.488281 160.125 167.800781 160.125 C 167.117188 160.125 166.4375 160.058594 165.765625 159.925781 C 165.09375 159.789062 164.441406 159.59375 163.808594 159.328125 C 163.171875 159.066406 162.570312 158.746094 162 158.363281 C 161.429688 157.984375 160.902344 157.550781 160.417969 157.066406 C 159.933594 156.582031 159.5 156.054688 159.121094 155.484375 C 158.738281 154.914062 158.417969 154.3125 158.15625 153.679688 C 157.894531 153.046875 157.695312 152.390625 157.5625 151.71875 C 157.425781 151.046875 157.359375 150.367188 157.359375 149.683594 C 157.34375 148.492188 157.414062 147.304688 157.570312 146.125 C 157.726562 144.941406 157.96875 143.78125 158.300781 142.636719 C 158.628906 141.488281 159.039062 140.375 159.53125 139.289062 C 160.023438 138.207031 160.59375 137.164062 161.242188 136.164062 C 161.890625 135.164062 162.605469 134.214844 163.394531 133.320312 C 164.179688 132.425781 165.027344 131.59375 165.9375 130.824219 C 166.847656 130.054688 167.808594 129.355469 168.820312 128.726562 C 169.832031 128.097656 170.886719 127.546875 171.980469 127.078125 C 172.523438 126.851562 173.046875 126.582031 173.550781 126.273438 C 174.054688 125.960938 174.527344 125.613281 174.976562 125.226562 C 175.421875 124.839844 175.835938 124.421875 176.214844 123.96875 C 176.59375 123.515625 176.933594 123.039062 177.238281 122.53125 C 177.539062 122.023438 177.800781 121.496094 178.019531 120.945312 C 178.238281 120.398438 178.410156 119.835938 178.539062 119.257812 C 178.664062 118.683594 178.746094 118.097656 178.78125 117.511719 C 178.816406 116.921875 178.804688 116.332031 178.742188 115.746094 C 178.683594 115.15625 178.578125 114.578125 178.425781 114.007812 C 178.273438 113.4375 178.078125 112.882812 177.835938 112.34375 C 177.59375 111.804688 177.3125 111.289062 176.988281 110.792969 C 176.664062 110.300781 176.300781 109.835938 175.902344 109.398438 C 175.503906 108.964844 175.074219 108.5625 174.613281 108.195312 C 174.148438 107.828125 173.660156 107.503906 173.144531 107.214844 C 172.628906 106.925781 172.09375 106.679688 171.539062 106.476562 C 170.984375 106.273438 170.417969 106.117188 169.839844 106.003906 C 169.191406 105.886719 168.542969 105.828125 167.886719 105.824219 C 167.230469 105.820312 166.578125 105.875 165.933594 105.984375 C 165.285156 106.097656 164.652344 106.261719 164.035156 106.484375 C 163.417969 106.707031 162.828125 106.984375 162.257812 107.308594 C 161.6875 107.636719 161.152344 108.011719 160.648438 108.429688 C 160.144531 108.851562 159.683594 109.3125 159.261719 109.816406 C 158.839844 110.316406 158.464844 110.851562 158.136719 111.421875 C 157.808594 111.988281 157.53125 112.582031 157.308594 113.199219 C 157.074219 113.839844 156.78125 114.449219 156.425781 115.035156 C 156.070312 115.617188 155.664062 116.160156 155.203125 116.660156 C 154.742188 117.164062 154.238281 117.617188 153.691406 118.023438 C 153.140625 118.425781 152.558594 118.773438 151.941406 119.0625 C 151.324219 119.351562 150.683594 119.578125 150.023438 119.742188 C 149.359375 119.90625 148.6875 120.007812 148.007812 120.039062 C 147.328125 120.074219 146.648438 120.039062 145.972656 119.941406 C 145.300781 119.839844 144.640625 119.675781 144 119.445312 C 143.355469 119.21875 142.742188 118.929688 142.15625 118.578125 C 141.570312 118.230469 141.027344 117.828125 140.519531 117.371094 C 140.011719 116.917969 139.554688 116.414062 139.144531 115.871094 C 138.738281 115.324219 138.386719 114.742188 138.089844 114.128906 C 137.792969 113.515625 137.5625 112.878906 137.390625 112.21875 C 137.222656 111.558594 137.117188 110.886719 137.078125 110.207031 C 137.039062 109.523438 137.066406 108.847656 137.160156 108.171875 C 137.253906 107.496094 137.414062 106.835938 137.636719 106.191406 C 137.855469 105.566406 138.097656 104.949219 138.355469 104.339844 C 138.617188 103.730469 138.894531 103.132812 139.191406 102.539062 C 139.488281 101.945312 139.800781 101.363281 140.136719 100.792969 C 140.46875 100.21875 140.816406 99.65625 141.1875 99.105469 C 141.554688 98.554688 141.9375 98.015625 142.339844 97.488281 C 142.742188 96.964844 143.160156 96.449219 143.59375 95.949219 C 144.023438 95.449219 144.472656 94.960938 144.9375 94.488281 C 145.402344 94.015625 145.878906 93.554688 146.371094 93.113281 C 146.863281 92.667969 147.367188 92.242188 147.886719 91.828125 C 148.40625 91.417969 148.9375 91.023438 149.480469 90.644531 C 150.023438 90.265625 150.578125 89.902344 151.144531 89.558594 C 151.710938 89.214844 152.285156 88.886719 152.871094 88.578125 C 153.457031 88.273438 154.054688 87.980469 154.65625 87.710938 C 155.261719 87.4375 155.875 87.1875 156.492188 86.953125 C 157.113281 86.71875 157.738281 86.503906 158.375 86.3125 C 159.007812 86.117188 159.644531 85.941406 160.289062 85.789062 C 160.933594 85.632812 161.582031 85.5 162.234375 85.382812 C 162.886719 85.269531 163.542969 85.175781 164.199219 85.101562 C 164.859375 85.027344 165.519531 84.976562 166.179688 84.941406 C 166.839844 84.910156 167.503906 84.898438 168.164062 84.90625 C 168.828125 84.914062 169.488281 84.945312 170.148438 84.996094 C 170.808594 85.042969 171.46875 85.113281 172.125 85.207031 C 172.78125 85.296875 173.433594 85.40625 174.082031 85.539062 C 174.730469 85.667969 175.375 85.820312 176.015625 85.992188 C 176.65625 86.164062 177.289062 86.355469 177.917969 86.566406 C 178.546875 86.777344 179.167969 87.007812 179.78125 87.257812 C 180.394531 87.507812 181 87.773438 181.59375 88.0625 C 182.191406 88.347656 182.78125 88.652344 183.359375 88.976562 C 183.9375 89.300781 184.503906 89.644531 185.058594 90 C 185.617188 90.359375 186.160156 90.738281 186.695312 91.128906 C 187.226562 91.523438 187.75 91.929688 188.257812 92.355469 C 188.765625 92.78125 189.257812 93.222656 189.738281 93.679688 C 190.21875 94.132812 190.683594 94.605469 191.136719 95.089844 C 191.585938 95.574219 192.023438 96.074219 192.441406 96.585938 C 192.863281 97.097656 193.265625 97.621094 193.652344 98.160156 C 194.042969 98.695312 194.410156 99.246094 194.765625 99.804688 C 195.117188 100.367188 195.453125 100.9375 195.773438 101.519531 C 196.089844 102.097656 196.390625 102.6875 196.671875 103.289062 C 196.953125 103.886719 197.214844 104.496094 197.457031 105.113281 C 197.699219 105.730469 197.925781 106.351562 198.128906 106.980469 C 198.332031 107.613281 198.519531 108.246094 198.683594 108.890625 C 198.847656 109.53125 198.992188 110.175781 199.117188 110.828125 C 199.242188 111.476562 199.347656 112.132812 199.429688 112.789062 C 199.515625 113.445312 199.578125 114.105469 199.621094 114.765625 C 199.664062 115.425781 199.6875 116.085938 199.691406 116.75 C 199.691406 117.414062 199.671875 118.074219 199.632812 118.734375 C 199.59375 119.398438 199.535156 120.054688 199.457031 120.714844 C 199.375 121.371094 199.273438 122.023438 199.152344 122.675781 C 199.03125 123.328125 198.890625 123.972656 198.730469 124.617188 C 198.570312 125.257812 198.386719 125.894531 198.1875 126.527344 C 197.988281 127.160156 197.765625 127.78125 197.527344 128.402344 C 197.289062 129.019531 197.027344 129.628906 196.75 130.230469 C 196.472656 130.832031 196.179688 131.421875 195.863281 132.003906 C 195.550781 132.589844 195.21875 133.160156 194.867188 133.722656 C 194.515625 134.285156 194.148438 134.835938 193.765625 135.375 C 193.382812 135.914062 192.980469 136.441406 192.5625 136.957031 C 192.148438 137.472656 191.714844 137.972656 191.265625 138.460938 C 190.816406 138.949219 190.355469 139.421875 189.875 139.878906 C 189.398438 140.339844 188.90625 140.78125 188.402344 141.210938 C 187.898438 141.640625 187.378906 142.050781 186.847656 142.449219 C 186.316406 142.84375 185.773438 143.222656 185.21875 143.585938 C 184.664062 143.949219 184.101562 144.292969 183.523438 144.621094 C 182.949219 144.945312 182.363281 145.253906 181.769531 145.546875 C 181.171875 145.835938 180.570312 146.109375 179.957031 146.363281 Z M 180.007812 146.363281 " fill-opacity="1" fill-rule="nonzero"/></g></svg>