<svg xmlns="http://www.w3.org/2000/svg" xmlns:xlink="http://www.w3.org/1999/xlink" width="480" zoomAndPan="magnify" viewBox="0 0 360 359.999987" height="480" preserveAspectRatio="xMidYMid meet" version="1.0"><defs><clipPath id="40ebf974b0"><path d="M 28.886719 28.886719 L 275 28.886719 L 275 275 L 28.886719 275 Z M 28.886719 28.886719 " clip-rule="nonzero"/></clipPath><clipPath id="5054b9c8fe"><path d="M 217 217 L 331.136719 217 L 331.136719 331.136719 L 217 331.136719 Z M 217 217 " clip-rule="nonzero"/></clipPath></defs><g clip-path="url(#40ebf974b0)"><path fill="#3affba" d="M 151.617188 59.570312 C 100.78125 59.570312 59.570312 100.78125 59.570312 151.617188 C 59.570312 202.453125 100.78125 243.664062 151.617188 243.664062 C 202.453125 243.664062 243.664062 202.453125 243.664062 151.617188 C 243.664062 100.78125 202.453125 59.570312 151.617188 59.570312 Z M 28.886719 151.617188 C 28.886719 83.835938 83.835938 28.886719 151.617188 28.886719 C 219.398438 28.886719 274.347656 83.835938 274.347656 151.617188 C 274.347656 219.398438 219.398438 274.347656 151.617188 274.347656 C 83.835938 274.347656 28.886719 219.398438 28.886719 151.617188 Z M 28.886719 151.617188 " fill-opacity="1" fill-rule="evenodd"/></g><path fill="#3affba" d="M 205.3125 151.617188 C 205.3125 121.960938 181.273438 97.921875 151.617188 97.921875 L 151.617188 67.238281 C 198.21875 67.238281 235.996094 105.015625 235.996094 151.617188 Z M 205.3125 151.617188 " fill-opacity="1" fill-rule="evenodd"/><g clip-path="url(#5054b9c8fe)"><path fill="#3affba" d="M 239.171875 217.476562 L 331.222656 309.523438 L 309.527344 331.222656 L 217.476562 239.171875 Z M 239.171875 217.476562 " fill-opacity="1" fill-rule="evenodd"/></g></svg>