<svg xmlns="http://www.w3.org/2000/svg" xmlns:xlink="http://www.w3.org/1999/xlink" width="480" zoomAndPan="magnify" viewBox="0 0 360 359.999987" height="480" preserveAspectRatio="xMidYMid meet" version="1.0"><defs><clipPath id="48285c282c"><path d="M 40 76 L 205 76 L 205 323.644531 L 40 323.644531 Z M 40 76 " clip-rule="nonzero"/></clipPath><clipPath id="e5a02c6143"><path d="M 122 33.394531 L 331 33.394531 L 331 242 L 122 242 Z M 122 33.394531 " clip-rule="nonzero"/></clipPath></defs><g clip-path="url(#48285c282c)"><path fill="#3affba" d="M 204.765625 159.324219 C 204.773438 151.921875 203.796875 144.652344 201.832031 137.519531 C 199.867188 130.382812 196.984375 123.636719 193.191406 117.28125 C 190.800781 117.933594 188.484375 118.785156 186.238281 119.835938 C 183.996094 120.886719 181.859375 122.121094 179.828125 123.542969 C 177.796875 124.960938 175.902344 126.546875 174.144531 128.292969 C 172.386719 130.039062 170.792969 131.921875 169.359375 133.945312 C 171.445312 137.847656 173.023438 141.949219 174.097656 146.242188 C 175.171875 150.535156 175.707031 154.898438 175.707031 159.324219 C 175.707031 161.066406 175.621094 162.808594 175.449219 164.546875 C 175.277344 166.28125 175.023438 168.007812 174.683594 169.71875 C 174.339844 171.429688 173.917969 173.121094 173.410156 174.789062 C 172.90625 176.457031 172.316406 178.097656 171.648438 179.710938 C 170.984375 181.324219 170.238281 182.898438 169.414062 184.4375 C 168.59375 185.976562 167.695312 187.472656 166.726562 188.921875 C 165.757812 190.375 164.71875 191.773438 163.613281 193.121094 C 162.503906 194.472656 161.335938 195.761719 160.101562 196.996094 C 158.867188 198.230469 157.574219 199.398438 156.226562 200.507812 C 154.878906 201.613281 153.480469 202.652344 152.027344 203.621094 C 150.578125 204.589844 149.082031 205.488281 147.542969 206.308594 C 146.003906 207.132812 144.429688 207.878906 142.816406 208.542969 C 141.203125 209.210938 139.5625 209.800781 137.894531 210.304688 C 136.222656 210.8125 134.535156 211.234375 132.824219 211.578125 C 131.109375 211.917969 129.386719 212.171875 127.652344 212.34375 C 125.914062 212.515625 124.171875 212.601562 122.429688 212.601562 C 120.683594 212.601562 118.941406 212.515625 117.207031 212.34375 C 115.46875 212.171875 113.746094 211.917969 112.035156 211.578125 C 110.324219 211.234375 108.632812 210.8125 106.964844 210.304688 C 105.292969 209.800781 103.652344 209.210938 102.039062 208.542969 C 100.429688 207.878906 98.851562 207.132812 97.3125 206.308594 C 95.773438 205.488281 94.28125 204.589844 92.828125 203.621094 C 91.378906 202.652344 89.980469 201.613281 88.628906 200.507812 C 87.28125 199.398438 85.988281 198.230469 84.757812 196.996094 C 83.523438 195.761719 82.351562 194.472656 81.246094 193.121094 C 80.136719 191.773438 79.101562 190.375 78.128906 188.921875 C 77.160156 187.472656 76.265625 185.976562 75.441406 184.4375 C 74.621094 182.898438 73.875 181.324219 73.207031 179.710938 C 72.539062 178.097656 71.953125 176.457031 71.445312 174.789062 C 70.9375 173.121094 70.515625 171.429688 70.175781 169.71875 C 69.835938 168.007812 69.578125 166.28125 69.410156 164.546875 C 69.238281 162.808594 69.152344 161.066406 69.152344 159.324219 C 69.152344 157.578125 69.238281 155.835938 69.410156 154.101562 C 69.578125 152.363281 69.835938 150.640625 70.175781 148.929688 C 70.515625 147.21875 70.9375 145.527344 71.445312 143.859375 C 71.953125 142.1875 72.539062 140.546875 73.207031 138.933594 C 73.875 137.324219 74.621094 135.746094 75.441406 134.207031 C 76.265625 132.671875 77.160156 131.175781 78.128906 129.722656 C 79.101562 128.273438 80.136719 126.875 81.246094 125.523438 C 82.351562 124.175781 83.523438 122.882812 84.757812 121.652344 C 85.988281 120.417969 87.28125 119.246094 88.628906 118.140625 C 89.980469 117.03125 91.378906 115.996094 92.828125 115.023438 C 94.28125 114.054688 95.773438 113.160156 97.3125 112.335938 C 98.851562 111.515625 100.429688 110.769531 102.039062 110.101562 C 103.652344 109.433594 105.292969 108.847656 106.964844 108.339844 C 108.632812 107.835938 110.324219 107.410156 112.035156 107.070312 C 113.746094 106.730469 115.46875 106.472656 117.207031 106.304688 C 118.941406 106.132812 120.683594 106.046875 122.429688 106.046875 C 124.761719 106.046875 127.085938 106.191406 129.402344 106.480469 C 135.921875 97.179688 143.894531 89.367188 153.328125 83.039062 C 148.429688 81.027344 143.378906 79.507812 138.175781 78.488281 C 132.976562 77.472656 127.726562 76.96875 122.429688 76.984375 C 121.15625 76.984375 119.886719 77.015625 118.617188 77.074219 C 117.347656 77.132812 116.078125 77.21875 114.8125 77.335938 C 113.546875 77.453125 112.285156 77.597656 111.027344 77.773438 C 109.765625 77.949219 108.511719 78.15625 107.265625 78.390625 C 106.015625 78.621094 104.769531 78.886719 103.535156 79.175781 C 102.296875 79.46875 101.066406 79.789062 99.84375 80.136719 C 98.621094 80.484375 97.40625 80.859375 96.203125 81.265625 C 94.996094 81.667969 93.800781 82.101562 92.617188 82.5625 C 91.433594 83.023438 90.257812 83.507812 89.09375 84.023438 C 87.933594 84.539062 86.78125 85.078125 85.644531 85.644531 C 84.507812 86.214844 83.382812 86.808594 82.273438 87.425781 C 81.164062 88.046875 80.070312 88.691406 78.988281 89.363281 C 77.910156 90.03125 76.84375 90.726562 75.796875 91.445312 C 74.75 92.167969 73.71875 92.910156 72.707031 93.675781 C 71.691406 94.445312 70.695312 95.234375 69.71875 96.050781 C 68.742188 96.863281 67.785156 97.699219 66.847656 98.554688 C 65.910156 99.414062 64.992188 100.292969 64.09375 101.195312 C 63.199219 102.09375 62.320312 103.015625 61.46875 103.957031 C 60.613281 104.898438 59.78125 105.855469 58.96875 106.835938 C 58.160156 107.816406 57.371094 108.8125 56.609375 109.832031 C 55.84375 110.847656 55.105469 111.878906 54.390625 112.929688 C 53.671875 113.980469 52.980469 115.046875 52.316406 116.128906 C 51.648438 117.210938 51.007812 118.308594 50.390625 119.421875 C 49.777344 120.53125 49.1875 121.660156 48.621094 122.796875 C 48.058594 123.9375 47.523438 125.089844 47.011719 126.253906 C 46.5 127.417969 46.019531 128.59375 45.5625 129.78125 C 45.105469 130.964844 44.679688 132.164062 44.277344 133.371094 C 43.878906 134.578125 43.507812 135.792969 43.164062 137.015625 C 42.816406 138.238281 42.503906 139.46875 42.214844 140.707031 C 41.929688 141.945312 41.671875 143.191406 41.441406 144.441406 C 41.210938 145.691406 41.011719 146.945312 40.839844 148.207031 C 40.667969 149.464844 40.527344 150.730469 40.414062 151.996094 C 40.300781 153.261719 40.21875 154.53125 40.164062 155.800781 C 40.109375 157.070312 40.085938 158.339844 40.089844 159.609375 C 40.097656 160.882812 40.132812 162.152344 40.195312 163.421875 C 40.257812 164.691406 40.351562 165.960938 40.472656 167.226562 C 40.597656 168.488281 40.75 169.75 40.929688 171.011719 C 41.109375 172.269531 41.320312 173.523438 41.558594 174.769531 C 41.800781 176.019531 42.066406 177.261719 42.363281 178.496094 C 42.660156 179.734375 42.984375 180.960938 43.339844 182.183594 C 43.691406 183.402344 44.074219 184.617188 44.484375 185.820312 C 44.894531 187.023438 45.332031 188.214844 45.796875 189.398438 C 46.261719 190.582031 46.753906 191.753906 47.273438 192.914062 C 47.792969 194.074219 48.339844 195.222656 48.910156 196.355469 C 49.484375 197.492188 50.082031 198.613281 50.707031 199.71875 C 51.332031 200.828125 51.980469 201.917969 52.65625 202.996094 C 53.332031 204.074219 54.03125 205.132812 54.753906 206.179688 C 55.480469 207.222656 56.226562 208.25 57 209.261719 C 57.769531 210.269531 58.566406 211.261719 59.382812 212.234375 C 60.203125 213.210938 61.042969 214.164062 61.902344 215.097656 C 62.765625 216.03125 63.648438 216.945312 64.550781 217.839844 C 65.457031 218.730469 66.382812 219.605469 67.328125 220.453125 C 68.269531 221.304688 69.234375 222.132812 70.21875 222.9375 C 71.203125 223.746094 72.203125 224.527344 73.222656 225.289062 C 74.242188 226.046875 75.277344 226.78125 76.332031 227.492188 C 77.382812 228.207031 78.453125 228.890625 79.539062 229.554688 C 80.625 230.214844 81.722656 230.851562 82.839844 231.464844 C 83.953125 232.074219 85.082031 232.660156 86.222656 233.21875 C 87.367188 233.777344 88.519531 234.308594 89.6875 234.8125 C 90.851562 235.316406 92.03125 235.796875 93.21875 236.246094 C 94.40625 236.695312 95.605469 237.121094 96.816406 237.515625 C 98.023438 237.910156 99.238281 238.277344 100.464844 238.617188 C 101.691406 238.953125 102.921875 239.265625 104.164062 239.546875 C 105.402344 239.828125 106.648438 240.082031 107.898438 240.304688 L 107.898438 270.71875 L 98.210938 270.71875 C 97.894531 270.722656 97.578125 270.753906 97.269531 270.816406 C 96.957031 270.878906 96.652344 270.972656 96.359375 271.09375 C 96.066406 271.214844 95.789062 271.363281 95.523438 271.542969 C 95.261719 271.71875 95.015625 271.917969 94.792969 272.144531 C 94.566406 272.367188 94.367188 272.613281 94.1875 272.875 C 94.011719 273.140625 93.863281 273.417969 93.742188 273.710938 C 93.617188 274.007812 93.527344 274.308594 93.464844 274.621094 C 93.402344 274.933594 93.371094 275.246094 93.367188 275.5625 L 93.367188 294.9375 C 93.371094 295.253906 93.402344 295.570312 93.464844 295.882812 C 93.527344 296.191406 93.617188 296.496094 93.742188 296.789062 C 93.863281 297.082031 94.011719 297.359375 94.1875 297.625 C 94.367188 297.890625 94.566406 298.132812 94.792969 298.359375 C 95.015625 298.582031 95.261719 298.785156 95.523438 298.960938 C 95.789062 299.136719 96.066406 299.285156 96.359375 299.410156 C 96.652344 299.53125 96.957031 299.621094 97.269531 299.683594 C 97.578125 299.746094 97.894531 299.78125 98.210938 299.78125 L 107.898438 299.78125 L 107.898438 319.152344 C 107.898438 319.472656 107.929688 319.785156 107.996094 320.097656 C 108.058594 320.410156 108.148438 320.710938 108.269531 321.003906 C 108.394531 321.300781 108.542969 321.578125 108.71875 321.839844 C 108.894531 322.105469 109.097656 322.351562 109.320312 322.574219 C 109.546875 322.800781 109.789062 323 110.054688 323.175781 C 110.320312 323.355469 110.597656 323.503906 110.890625 323.625 C 111.183594 323.746094 111.488281 323.839844 111.796875 323.902344 C 112.109375 323.964844 112.425781 323.996094 112.742188 323.996094 L 132.117188 323.996094 C 132.433594 323.996094 132.746094 323.964844 133.058594 323.902344 C 133.371094 323.839844 133.671875 323.746094 133.964844 323.625 C 134.261719 323.503906 134.539062 323.355469 134.804688 323.175781 C 135.066406 323 135.3125 322.800781 135.535156 322.574219 C 135.761719 322.351562 135.960938 322.105469 136.136719 321.839844 C 136.316406 321.578125 136.464844 321.300781 136.585938 321.003906 C 136.707031 320.710938 136.800781 320.410156 136.863281 320.097656 C 136.925781 319.785156 136.957031 319.472656 136.957031 319.152344 L 136.957031 299.78125 L 146.644531 299.78125 C 146.964844 299.78125 147.277344 299.75 147.589844 299.683594 C 147.902344 299.621094 148.203125 299.53125 148.496094 299.410156 C 148.789062 299.285156 149.070312 299.136719 149.332031 298.960938 C 149.597656 298.785156 149.839844 298.582031 150.066406 298.359375 C 150.289062 298.132812 150.492188 297.890625 150.667969 297.625 C 150.84375 297.359375 150.996094 297.082031 151.117188 296.789062 C 151.238281 296.496094 151.332031 296.191406 151.394531 295.882812 C 151.457031 295.570312 151.488281 295.253906 151.488281 294.9375 L 151.488281 275.5625 C 151.488281 275.246094 151.457031 274.933594 151.394531 274.621094 C 151.332031 274.308594 151.238281 274.007812 151.117188 273.710938 C 150.996094 273.417969 150.84375 273.140625 150.667969 272.875 C 150.492188 272.613281 150.289062 272.367188 150.066406 272.144531 C 149.839844 271.917969 149.597656 271.71875 149.332031 271.542969 C 149.070312 271.363281 148.789062 271.214844 148.496094 271.09375 C 148.203125 270.972656 147.902344 270.878906 147.589844 270.816406 C 147.277344 270.753906 146.964844 270.722656 146.644531 270.71875 L 136.957031 270.71875 L 136.957031 240.304688 C 139.3125 239.882812 141.640625 239.359375 143.949219 238.734375 C 146.253906 238.109375 148.53125 237.386719 150.777344 236.5625 C 153.019531 235.738281 155.222656 234.820312 157.386719 233.804688 C 159.550781 232.789062 161.667969 231.683594 163.734375 230.484375 C 165.804688 229.285156 167.816406 227.996094 169.769531 226.621094 C 171.726562 225.246094 173.617188 223.792969 175.445312 222.25 C 177.273438 220.710938 179.035156 219.097656 180.722656 217.40625 C 182.410156 215.710938 184.019531 213.949219 185.554688 212.117188 C 187.089844 210.285156 188.542969 208.386719 189.910156 206.429688 C 191.28125 204.46875 192.5625 202.457031 193.757812 200.382812 C 194.949219 198.3125 196.050781 196.195312 197.0625 194.027344 C 198.070312 191.863281 198.984375 189.65625 199.800781 187.410156 C 200.621094 185.164062 201.335938 182.886719 201.957031 180.578125 C 202.574219 178.269531 203.09375 175.9375 203.507812 173.582031 C 203.925781 171.230469 204.238281 168.863281 204.449219 166.480469 C 204.65625 164.097656 204.765625 161.714844 204.765625 159.324219 Z M 204.765625 159.324219 " fill-opacity="1" fill-rule="nonzero"/></g><g clip-path="url(#e5a02c6143)"><path fill="#3affba" d="M 325.851562 33.394531 L 267.730469 33.394531 C 267.410156 33.398438 267.097656 33.429688 266.785156 33.492188 C 266.472656 33.554688 266.171875 33.648438 265.878906 33.769531 C 265.585938 33.890625 265.304688 34.039062 265.042969 34.214844 C 264.777344 34.394531 264.535156 34.59375 264.308594 34.820312 C 264.085938 35.042969 263.882812 35.289062 263.707031 35.550781 C 263.53125 35.816406 263.378906 36.09375 263.257812 36.386719 C 263.136719 36.679688 263.042969 36.984375 262.980469 37.296875 C 262.917969 37.605469 262.886719 37.921875 262.886719 38.238281 L 262.886719 57.613281 C 262.886719 57.929688 262.917969 58.246094 262.980469 58.558594 C 263.042969 58.867188 263.136719 59.171875 263.257812 59.464844 C 263.378906 59.757812 263.53125 60.035156 263.707031 60.300781 C 263.882812 60.5625 264.085938 60.808594 264.308594 61.035156 C 264.535156 61.257812 264.777344 61.457031 265.042969 61.636719 C 265.304688 61.8125 265.585938 61.960938 265.878906 62.082031 C 266.171875 62.207031 266.472656 62.296875 266.785156 62.359375 C 267.097656 62.421875 267.410156 62.457031 267.730469 62.457031 L 280.273438 62.457031 L 251.261719 91.46875 C 247.867188 89.117188 244.316406 87.035156 240.601562 85.226562 C 236.890625 83.414062 233.066406 81.894531 229.121094 80.667969 C 225.179688 79.441406 221.167969 78.515625 217.085938 77.898438 C 213 77.28125 208.894531 76.976562 204.765625 76.984375 C 201.144531 76.984375 197.542969 77.21875 193.953125 77.695312 C 190.367188 78.167969 186.824219 78.875 183.328125 79.816406 C 179.832031 80.757812 176.414062 81.921875 173.074219 83.316406 C 169.734375 84.707031 166.496094 86.3125 163.367188 88.128906 C 160.238281 89.949219 157.242188 91.964844 154.378906 94.179688 C 151.515625 96.394531 148.8125 98.789062 146.261719 101.359375 C 143.714844 103.929688 141.347656 106.65625 139.160156 109.539062 C 136.972656 112.425781 134.984375 115.4375 133.195312 118.585938 C 131.40625 121.730469 129.828125 124.980469 128.46875 128.335938 C 127.105469 131.6875 125.972656 135.117188 125.0625 138.621094 C 124.15625 142.125 123.480469 145.671875 123.039062 149.265625 C 122.601562 152.859375 122.398438 156.464844 122.433594 160.082031 C 122.46875 163.703125 122.742188 167.304688 123.25 170.886719 C 123.761719 174.472656 124.507812 178.003906 125.484375 181.492188 C 126.460938 184.976562 127.660156 188.382812 129.089844 191.707031 C 130.515625 195.035156 132.152344 198.253906 134.003906 201.363281 C 136.394531 200.707031 138.710938 199.855469 140.953125 198.804688 C 143.199219 197.753906 145.335938 196.523438 147.371094 195.109375 C 149.402344 193.691406 151.300781 192.117188 153.066406 190.378906 C 154.832031 188.640625 156.4375 186.761719 157.882812 184.75 C 157.421875 183.902344 156.984375 183.042969 156.570312 182.171875 C 156.15625 181.300781 155.765625 180.417969 155.398438 179.527344 C 155.03125 178.632812 154.691406 177.734375 154.375 176.820312 C 154.054688 175.910156 153.761719 174.992188 153.496094 174.066406 C 153.230469 173.136719 152.988281 172.203125 152.769531 171.265625 C 152.554688 170.324219 152.363281 169.378906 152.195312 168.429688 C 152.03125 167.480469 151.890625 166.523438 151.777344 165.566406 C 151.664062 164.609375 151.574219 163.648438 151.515625 162.683594 C 151.453125 161.722656 151.417969 160.757812 151.410156 159.792969 C 151.398438 158.828125 151.414062 157.867188 151.457031 156.902344 C 151.503906 155.9375 151.570312 154.976562 151.667969 154.015625 C 151.761719 153.054688 151.882812 152.097656 152.03125 151.144531 C 152.175781 150.191406 152.351562 149.242188 152.550781 148.300781 C 152.746094 147.355469 152.972656 146.417969 153.222656 145.484375 C 153.472656 144.554688 153.746094 143.628906 154.046875 142.710938 C 154.34375 141.796875 154.667969 140.886719 155.019531 139.988281 C 155.367188 139.089844 155.742188 138.199219 156.136719 137.320312 C 156.535156 136.441406 156.957031 135.574219 157.402344 134.71875 C 157.847656 133.863281 158.3125 133.019531 158.804688 132.1875 C 159.292969 131.355469 159.804688 130.539062 160.339844 129.734375 C 160.875 128.933594 161.429688 128.144531 162.007812 127.371094 C 162.585938 126.597656 163.183594 125.84375 163.800781 125.101562 C 164.421875 124.363281 165.058594 123.640625 165.714844 122.933594 C 166.375 122.226562 167.050781 121.539062 167.746094 120.871094 C 168.441406 120.203125 169.152344 119.550781 169.882812 118.921875 C 170.613281 118.292969 171.359375 117.679688 172.125 117.089844 C 172.886719 116.5 173.664062 115.933594 174.460938 115.386719 C 175.253906 114.835938 176.0625 114.3125 176.886719 113.808594 C 177.707031 113.304688 178.542969 112.824219 179.394531 112.363281 C 180.242188 111.90625 181.101562 111.472656 181.976562 111.058594 C 182.847656 110.648438 183.730469 110.261719 184.625 109.898438 C 185.519531 109.535156 186.421875 109.195312 187.332031 108.878906 C 188.246094 108.566406 189.164062 108.273438 190.09375 108.011719 C 191.019531 107.746094 191.953125 107.507812 192.894531 107.292969 C 193.835938 107.078125 194.78125 106.890625 195.730469 106.726562 C 196.683594 106.566406 197.636719 106.425781 198.59375 106.316406 C 199.554688 106.207031 200.515625 106.121094 201.476562 106.0625 C 202.441406 106.003906 203.402344 105.972656 204.367188 105.964844 C 205.332031 105.957031 206.296875 105.976562 207.261719 106.023438 C 208.226562 106.070312 209.1875 106.140625 210.144531 106.238281 C 211.105469 106.335938 212.0625 106.460938 213.015625 106.613281 C 213.96875 106.761719 214.917969 106.9375 215.859375 107.140625 C 216.804688 107.339844 217.742188 107.566406 218.671875 107.820312 C 219.601562 108.074219 220.527344 108.351562 221.441406 108.652344 C 222.359375 108.953125 223.265625 109.28125 224.164062 109.632812 C 225.0625 109.984375 225.949219 110.359375 226.828125 110.761719 C 227.707031 111.160156 228.574219 111.585938 229.425781 112.03125 C 230.28125 112.476562 231.125 112.949219 231.953125 113.441406 C 232.785156 113.933594 233.597656 114.449219 234.402344 114.984375 C 235.203125 115.523438 235.988281 116.082031 236.757812 116.660156 C 237.53125 117.238281 238.285156 117.839844 239.023438 118.460938 C 239.761719 119.082031 240.484375 119.722656 241.1875 120.382812 C 241.890625 121.039062 242.578125 121.71875 243.246094 122.417969 C 243.910156 123.113281 244.558594 123.828125 245.1875 124.558594 C 245.816406 125.292969 246.421875 126.039062 247.011719 126.804688 C 247.597656 127.570312 248.164062 128.351562 248.710938 129.148438 C 249.253906 129.941406 249.777344 130.753906 250.28125 131.578125 C 250.78125 132.402344 251.257812 133.238281 251.714844 134.089844 C 252.171875 134.9375 252.605469 135.800781 253.011719 136.675781 C 253.421875 137.546875 253.808594 138.433594 254.167969 139.328125 C 254.527344 140.222656 254.867188 141.125 255.175781 142.039062 C 255.488281 142.953125 255.777344 143.871094 256.039062 144.800781 C 256.300781 145.730469 256.539062 146.664062 256.75 147.605469 C 256.960938 148.546875 257.144531 149.492188 257.304688 150.445312 C 257.464844 151.394531 257.597656 152.351562 257.707031 153.308594 C 257.816406 154.269531 257.898438 155.230469 257.953125 156.191406 C 258.007812 157.15625 258.039062 158.117188 258.042969 159.082031 C 258.046875 160.046875 258.023438 161.011719 257.976562 161.976562 C 257.925781 162.9375 257.851562 163.902344 257.75 164.859375 C 257.648438 165.820312 257.523438 166.777344 257.371094 167.726562 C 257.214844 168.679688 257.039062 169.628906 256.835938 170.570312 C 256.628906 171.515625 256.398438 172.449219 256.144531 173.378906 C 255.890625 174.3125 255.609375 175.234375 255.304688 176.148438 C 255 177.0625 254.667969 177.96875 254.316406 178.867188 C 253.960938 179.765625 253.582031 180.652344 253.179688 181.527344 C 252.777344 182.40625 252.351562 183.269531 251.902344 184.125 C 251.453125 184.976562 250.980469 185.820312 250.484375 186.648438 C 249.988281 187.476562 249.472656 188.289062 248.933594 189.089844 C 248.394531 189.886719 247.832031 190.671875 247.25 191.441406 C 246.667969 192.210938 246.066406 192.964844 245.445312 193.703125 C 244.820312 194.4375 244.179688 195.15625 243.519531 195.859375 C 242.855469 196.5625 242.175781 197.246094 241.476562 197.910156 C 240.777344 198.574219 240.0625 199.21875 239.328125 199.847656 C 238.59375 200.472656 237.84375 201.078125 237.074219 201.664062 C 236.308594 202.25 235.527344 202.8125 234.730469 203.355469 C 233.933594 203.898438 233.121094 204.421875 232.292969 204.917969 C 231.46875 205.417969 230.628906 205.894531 229.777344 206.347656 C 228.925781 206.800781 228.0625 207.230469 227.1875 207.636719 C 226.3125 208.042969 225.429688 208.425781 224.535156 208.785156 C 223.636719 209.140625 222.734375 209.476562 221.820312 209.785156 C 220.90625 210.09375 219.984375 210.378906 219.054688 210.636719 C 218.125 210.898438 217.191406 211.132812 216.246094 211.339844 C 215.304688 211.546875 214.359375 211.730469 213.40625 211.886719 C 212.457031 212.046875 211.5 212.175781 210.542969 212.28125 C 209.582031 212.386719 208.621094 212.464844 207.65625 212.519531 C 206.695312 212.574219 205.730469 212.601562 204.765625 212.601562 C 202.414062 212.609375 200.070312 212.449219 197.742188 212.117188 C 191.21875 221.429688 183.226562 229.246094 173.769531 235.558594 C 183.699219 239.632812 194.03125 241.667969 204.765625 241.660156 C 206.113281 241.660156 207.457031 241.625 208.804688 241.554688 C 210.148438 241.488281 211.492188 241.386719 212.832031 241.253906 C 214.171875 241.121094 215.507812 240.953125 216.839844 240.753906 C 218.171875 240.554688 219.5 240.324219 220.820312 240.058594 C 222.140625 239.792969 223.457031 239.5 224.761719 239.171875 C 226.066406 238.839844 227.367188 238.480469 228.652344 238.089844 C 229.941406 237.695312 231.222656 237.273438 232.488281 236.820312 C 233.757812 236.363281 235.011719 235.878906 236.257812 235.363281 C 237.5 234.84375 238.730469 234.300781 239.949219 233.722656 C 241.167969 233.144531 242.367188 232.539062 243.554688 231.902344 C 244.742188 231.269531 245.914062 230.605469 247.070312 229.910156 C 248.226562 229.21875 249.363281 228.496094 250.480469 227.75 C 251.601562 227 252.703125 226.222656 253.785156 225.421875 C 254.867188 224.617188 255.925781 223.789062 256.96875 222.933594 C 258.007812 222.082031 259.027344 221.199219 260.027344 220.296875 C 261.023438 219.390625 262 218.460938 262.953125 217.511719 C 263.90625 216.558594 264.832031 215.582031 265.738281 214.585938 C 266.644531 213.585938 267.523438 212.566406 268.378906 211.527344 C 269.230469 210.484375 270.0625 209.421875 270.863281 208.34375 C 271.667969 207.261719 272.441406 206.160156 273.191406 205.039062 C 273.941406 203.921875 274.660156 202.78125 275.351562 201.628906 C 276.046875 200.472656 276.710938 199.300781 277.347656 198.113281 C 277.980469 196.925781 278.589844 195.722656 279.164062 194.507812 C 279.742188 193.289062 280.289062 192.058594 280.804688 190.8125 C 281.320312 189.570312 281.804688 188.3125 282.261719 187.046875 C 282.714844 185.777344 283.140625 184.5 283.53125 183.210938 C 283.921875 181.921875 284.285156 180.625 284.613281 179.320312 C 284.941406 178.011719 285.238281 176.699219 285.5 175.378906 C 285.765625 174.058594 285.996094 172.730469 286.195312 171.398438 C 286.394531 170.066406 286.5625 168.730469 286.695312 167.390625 C 286.828125 166.050781 286.929688 164.707031 287 163.363281 C 287.066406 162.015625 287.101562 160.671875 287.101562 159.324219 C 287.109375 155.195312 286.804688 151.089844 286.1875 147.003906 C 285.570312 142.921875 284.648438 138.910156 283.421875 134.964844 C 282.195312 131.023438 280.675781 127.195312 278.863281 123.484375 C 277.054688 119.773438 274.972656 116.222656 272.621094 112.828125 L 301.632812 83.816406 L 301.632812 96.359375 C 301.632812 96.675781 301.664062 96.992188 301.726562 97.304688 C 301.792969 97.613281 301.882812 97.917969 302.003906 98.210938 C 302.128906 98.503906 302.277344 98.78125 302.453125 99.046875 C 302.628906 99.3125 302.832031 99.554688 303.054688 99.78125 C 303.28125 100.003906 303.523438 100.207031 303.789062 100.382812 C 304.054688 100.558594 304.332031 100.707031 304.625 100.832031 C 304.917969 100.953125 305.222656 101.046875 305.53125 101.109375 C 305.84375 101.171875 306.160156 101.203125 306.476562 101.203125 L 325.851562 101.203125 C 326.167969 101.203125 326.480469 101.171875 326.792969 101.109375 C 327.105469 101.046875 327.40625 100.953125 327.699219 100.832031 C 327.996094 100.707031 328.273438 100.558594 328.539062 100.382812 C 328.800781 100.207031 329.046875 100.003906 329.269531 99.78125 C 329.496094 99.554688 329.695312 99.3125 329.871094 99.046875 C 330.050781 98.78125 330.199219 98.503906 330.320312 98.210938 C 330.441406 97.917969 330.535156 97.613281 330.597656 97.304688 C 330.660156 96.992188 330.691406 96.675781 330.691406 96.359375 L 330.691406 38.238281 C 330.691406 37.921875 330.660156 37.605469 330.597656 37.296875 C 330.535156 36.984375 330.441406 36.679688 330.320312 36.386719 C 330.199219 36.09375 330.050781 35.816406 329.871094 35.550781 C 329.695312 35.289062 329.496094 35.042969 329.269531 34.820312 C 329.046875 34.59375 328.800781 34.394531 328.539062 34.214844 C 328.273438 34.039062 327.996094 33.890625 327.699219 33.769531 C 327.40625 33.648438 327.105469 33.554688 326.792969 33.492188 C 326.480469 33.429688 326.167969 33.398438 325.851562 33.394531 Z M 325.851562 33.394531 " fill-opacity="1" fill-rule="nonzero"/></g></svg>