<svg xmlns="http://www.w3.org/2000/svg" xmlns:xlink="http://www.w3.org/1999/xlink" width="480" zoomAndPan="magnify" viewBox="0 0 360 359.999987" height="480" preserveAspectRatio="xMidYMid meet" version="1.0"><defs><clipPath id="7802933170"><path d="M 60 36 L 299.941406 36 L 299.941406 324 L 60 324 Z M 60 36 " clip-rule="nonzero"/></clipPath></defs><g clip-path="url(#7802933170)"><path fill="#3affba" d="M 282 36 L 90 36 C 80.074219 36 72 44.074219 72 54 L 72 84 L 66 84 C 62.6875 84 60 86.6875 60 90 C 60 93.3125 62.6875 96 66 96 L 114 96 C 117.3125 96 120 93.3125 120 90 C 120 86.6875 117.3125 84 114 84 L 97.101562 84 C 99.585938 77.027344 106.1875 72 114 72 C 123.921875 72 132 80.074219 132 90 C 132 99.925781 123.921875 108 114 108 L 72 108 L 72 144 L 66 144 C 62.6875 144 60 146.6875 60 150 C 60 153.3125 62.6875 156 66 156 L 114 156 C 117.3125 156 120 153.3125 120 150 C 120 146.6875 117.3125 144 114 144 L 97.101562 144 C 99.585938 137.027344 106.1875 132 114 132 C 123.921875 132 132 140.074219 132 150 C 132 159.925781 123.921875 168 114 168 L 72 168 L 72 204 L 66 204 C 62.6875 204 60 206.6875 60 210 C 60 213.3125 62.6875 216 66 216 L 114 216 C 117.3125 216 120 213.3125 120 210 C 120 206.6875 117.3125 204 114 204 L 97.101562 204 C 99.585938 197.027344 106.1875 192 114 192 C 123.921875 192 132 200.074219 132 210 C 132 219.925781 123.921875 228 114 228 L 72 228 L 72 264 L 66 264 C 62.6875 264 60 266.6875 60 270 C 60 273.3125 62.6875 276 66 276 L 114 276 C 117.3125 276 120 273.3125 120 270 C 120 266.6875 117.3125 264 114 264 L 97.101562 264 C 99.585938 257.027344 106.1875 252 114 252 C 123.921875 252 132 260.074219 132 270 C 132 279.925781 123.921875 288 114 288 L 72 288 L 72 306 C 72 315.925781 80.074219 324 90 324 L 282 324 C 291.921875 324 300 315.925781 300 306 L 300 54 C 300 44.074219 291.921875 36 282 36 Z M 282 36 " fill-opacity="1" fill-rule="nonzero"/></g></svg>