<svg xmlns="http://www.w3.org/2000/svg" xmlns:xlink="http://www.w3.org/1999/xlink" width="480" zoomAndPan="magnify" viewBox="0 0 360 359.999987" height="480" preserveAspectRatio="xMidYMid meet" version="1.0"><defs><clipPath id="abc1c84ba8"><path d="M 59.347656 39.296875 L 300.847656 39.296875 L 300.847656 320.546875 L 59.347656 320.546875 Z M 59.347656 39.296875 " clip-rule="nonzero"/></clipPath></defs><g clip-path="url(#abc1c84ba8)"><path fill="#3affba" d="M 198.4375 294.113281 L 198.4375 235.710938 C 198.4375 233.460938 196.613281 231.632812 194.367188 231.632812 C 192.117188 231.632812 190.300781 233.460938 190.300781 235.710938 L 190.300781 294.113281 L 168.113281 294.113281 L 168.113281 212.375 L 220.617188 212.375 L 220.617188 294.113281 Z M 234.394531 237.308594 C 237.511719 237.308594 240.046875 234.78125 240.046875 231.667969 L 240.046875 162.640625 C 240.046875 151.472656 233.378906 141.34375 223.058594 136.839844 C 216.375 133.941406 208.433594 134.175781 200.746094 134.398438 C 198.914062 134.453125 197.019531 134.507812 195.160156 134.519531 C 194.898438 134.523438 194.628906 134.523438 194.367188 134.523438 L 176.800781 134.523438 C 161.292969 134.523438 148.683594 147.132812 148.683594 162.640625 L 148.683594 231.671875 C 148.683594 234.78125 151.214844 237.308594 154.324219 237.308594 C 157.441406 237.308594 159.976562 234.78125 159.976562 231.671875 L 159.976562 184.523438 C 159.976562 182.277344 161.796875 180.453125 164.042969 180.453125 C 166.292969 180.453125 168.113281 182.277344 168.113281 184.523438 L 168.113281 204.230469 L 220.617188 204.230469 L 220.617188 184.523438 C 220.617188 182.277344 222.441406 180.453125 224.6875 180.453125 C 226.9375 180.453125 228.761719 182.277344 228.761719 184.523438 L 228.761719 231.671875 C 228.761719 234.78125 231.285156 237.308594 234.394531 237.308594 Z M 222.367188 98.386719 C 222.367188 82.945312 209.804688 70.382812 194.367188 70.382812 C 178.929688 70.382812 166.371094 82.945312 166.371094 98.386719 C 166.371094 113.820312 178.925781 126.386719 194.367188 126.386719 C 209.804688 126.386719 222.367188 113.820312 222.367188 98.386719 Z M 139.09375 48.535156 L 139.09375 39.304688 L 59.335938 39.304688 L 59.335938 57.746094 L 129.882812 57.746094 C 134.960938 57.746094 139.09375 53.609375 139.09375 48.535156 Z M 59.335938 302.253906 L 59.335938 320.691406 L 300.660156 320.691406 L 300.660156 302.253906 Z M 247.410156 43.542969 C 247.410156 41.296875 245.59375 39.472656 243.34375 39.472656 L 147.230469 39.472656 L 147.230469 47.609375 L 243.34375 47.609375 C 245.59375 47.613281 247.410156 45.792969 247.410156 43.542969 Z M 111.375 65.890625 L 59.335938 65.890625 L 59.335938 81.097656 L 88.648438 81.097656 C 90.898438 81.097656 92.722656 82.917969 92.722656 85.167969 C 92.722656 87.417969 90.898438 89.234375 88.648438 89.234375 L 59.335938 89.234375 L 59.335938 100.066406 L 73.820312 100.066406 C 76.070312 100.066406 77.886719 101.886719 77.886719 104.136719 C 77.886719 106.386719 76.070312 108.207031 73.820312 108.207031 L 59.335938 108.207031 L 59.335938 119.03125 L 88.648438 119.03125 C 90.898438 119.03125 92.722656 120.855469 92.722656 123.101562 C 92.722656 125.351562 90.898438 127.175781 88.648438 127.175781 L 59.335938 127.175781 L 59.335938 138 L 73.820312 138 C 76.070312 138 77.886719 139.824219 77.886719 142.070312 C 77.886719 144.320312 76.070312 146.140625 73.820312 146.140625 L 59.335938 146.140625 L 59.335938 156.96875 L 88.648438 156.96875 C 90.898438 156.96875 92.722656 158.789062 92.722656 161.039062 C 92.722656 163.289062 90.898438 165.109375 88.648438 165.109375 L 59.335938 165.109375 L 59.335938 175.933594 L 73.820312 175.933594 C 76.070312 175.933594 77.886719 177.757812 77.886719 180.007812 C 77.886719 182.253906 76.070312 184.078125 73.820312 184.078125 L 59.335938 184.078125 L 59.335938 194.902344 L 88.648438 194.902344 C 90.898438 194.902344 92.722656 196.730469 92.722656 198.972656 C 92.722656 201.222656 90.898438 203.042969 88.648438 203.042969 L 59.335938 203.042969 L 59.335938 213.855469 L 73.820312 213.855469 C 76.070312 213.855469 77.886719 215.675781 77.886719 217.925781 C 77.886719 220.175781 76.070312 221.996094 73.820312 221.996094 L 59.335938 221.996094 L 59.335938 232.824219 L 88.648438 232.824219 C 90.898438 232.824219 92.722656 234.644531 92.722656 236.894531 C 92.722656 239.136719 90.898438 240.964844 88.648438 240.964844 L 59.335938 240.964844 L 59.335938 251.789062 L 73.820312 251.789062 C 76.070312 251.789062 77.886719 253.613281 77.886719 255.859375 C 77.886719 258.109375 76.070312 259.933594 73.820312 259.933594 L 59.335938 259.933594 L 59.335938 270.757812 L 88.648438 270.757812 C 90.898438 270.757812 92.722656 272.578125 92.722656 274.828125 C 92.722656 277.078125 90.898438 278.898438 88.648438 278.898438 L 59.335938 278.898438 L 59.335938 294.113281 L 111.375 294.113281 Z M 264.019531 258.078125 C 262.429688 256.488281 259.855469 256.488281 258.265625 258.078125 C 256.675781 259.664062 256.675781 262.242188 258.265625 263.832031 L 271.511719 277.082031 C 272.308594 277.875 273.351562 278.273438 274.390625 278.273438 C 275.433594 278.273438 276.472656 277.875 277.269531 277.085938 L 290.535156 263.835938 C 292.125 262.246094 292.125 259.667969 290.539062 258.078125 C 288.949219 256.488281 286.371094 256.484375 284.78125 258.074219 L 278.460938 264.386719 L 278.460938 101.132812 L 284.78125 107.445312 C 285.578125 108.238281 286.617188 108.632812 287.660156 108.632812 C 288.699219 108.632812 289.742188 108.234375 290.539062 107.441406 C 292.128906 105.851562 292.125 103.273438 290.535156 101.683594 L 277.269531 88.433594 C 275.679688 86.847656 273.101562 86.847656 271.515625 88.4375 L 258.265625 101.6875 C 256.675781 103.273438 256.675781 105.851562 258.265625 107.441406 C 259.855469 109.03125 262.429688 109.03125 264.019531 107.441406 L 270.320312 101.140625 L 270.320312 264.375 Z M 264.019531 258.078125 " fill-opacity="1" fill-rule="nonzero"/></g></svg>