<svg xmlns="http://www.w3.org/2000/svg" xmlns:xlink="http://www.w3.org/1999/xlink" width="480" zoomAndPan="magnify" viewBox="0 0 360 359.999987" height="480" preserveAspectRatio="xMidYMid meet" version="1.0"><defs><clipPath id="94b5fbbe60"><path d="M 56 108 L 305 108 L 305 333.75 L 56 333.75 Z M 56 108 " clip-rule="nonzero"/></clipPath></defs><path fill="#3affba" d="M 329.949219 140.488281 L 279.558594 103.425781 L 279.558594 59.210938 C 279.558594 52.277344 273.933594 46.671875 267.011719 46.671875 L 246.617188 46.671875 C 239.6875 46.671875 234.070312 52.289062 234.070312 59.210938 L 234.070312 69.953125 L 195.648438 41.695312 C 187.3125 35.546875 173.664062 35.546875 165.328125 41.695312 L 31.03125 140.488281 C 22.695312 146.625 20.898438 158.476562 27.035156 166.824219 L 30.746094 171.859375 C 36.871094 180.207031 48.722656 182.011719 57.050781 175.875 L 165.328125 96.1875 C 173.664062 90.050781 187.3125 90.050781 195.648438 96.1875 L 303.917969 175.875 C 312.253906 182.011719 324.097656 180.195312 330.222656 171.859375 L 333.945312 166.824219 C 340.070312 158.476562 338.273438 146.625 329.949219 140.488281 Z M 329.949219 140.488281 " fill-opacity="1" fill-rule="nonzero"/><g clip-path="url(#94b5fbbe60)"><path fill="#3affba" d="M 289.769531 182.808594 L 195.621094 113.222656 C 187.292969 107.066406 173.683594 107.066406 165.359375 113.222656 L 71.207031 182.808594 C 62.882812 188.964844 56.070312 197.96875 56.070312 202.847656 L 56.070312 303.734375 C 56.070312 320.109375 70.109375 333.394531 87.4375 333.394531 L 144.9375 333.394531 L 144.9375 244.15625 C 144.9375 237.261719 150.582031 231.625 157.476562 231.625 L 203.484375 231.625 C 210.378906 231.625 216.023438 237.261719 216.023438 244.15625 L 216.023438 333.394531 L 273.53125 333.394531 C 290.851562 333.394531 304.882812 320.109375 304.882812 303.734375 L 304.882812 202.847656 C 304.890625 197.96875 298.097656 188.964844 289.769531 182.808594 Z M 289.769531 182.808594 " fill-opacity="1" fill-rule="nonzero"/></g></svg>