<svg xmlns="http://www.w3.org/2000/svg" xmlns:xlink="http://www.w3.org/1999/xlink" width="480" zoomAndPan="magnify" viewBox="0 0 360 359.999987" height="480" preserveAspectRatio="xMidYMid meet" version="1.0"><defs><clipPath id="27e8f27786"><path d="M 31.726562 27.457031 L 327.976562 27.457031 L 327.976562 323.707031 L 31.726562 323.707031 Z M 31.726562 27.457031 " clip-rule="nonzero"/></clipPath></defs><g clip-path="url(#27e8f27786)"><path fill="#3ffcb7" d="M 180 27.457031 C 177.574219 27.457031 175.148438 27.515625 172.722656 27.636719 C 170.300781 27.753906 167.882812 27.933594 165.464844 28.171875 C 163.050781 28.40625 160.644531 28.707031 158.242188 29.0625 C 155.84375 29.417969 153.453125 29.832031 151.074219 30.304688 C 148.691406 30.777344 146.328125 31.308594 143.972656 31.898438 C 141.617188 32.488281 139.28125 33.136719 136.957031 33.839844 C 134.636719 34.546875 132.332031 35.304688 130.046875 36.125 C 127.765625 36.941406 125.5 37.8125 123.257812 38.742188 C 121.015625 39.671875 118.800781 40.65625 116.605469 41.691406 C 114.410156 42.730469 112.246094 43.820312 110.105469 44.964844 C 107.964844 46.109375 105.855469 47.304688 103.773438 48.550781 C 101.691406 49.796875 99.640625 51.097656 97.625 52.445312 C 95.605469 53.792969 93.625 55.191406 91.675781 56.636719 C 89.726562 58.082031 87.8125 59.574219 85.9375 61.113281 C 84.0625 62.652344 82.222656 64.234375 80.425781 65.867188 C 78.628906 67.496094 76.871094 69.167969 75.15625 70.882812 C 73.441406 72.601562 71.765625 74.355469 70.136719 76.15625 C 68.507812 77.953125 66.921875 79.789062 65.382812 81.664062 C 63.84375 83.542969 62.351562 85.453125 60.90625 87.402344 C 59.460938 89.351562 58.066406 91.335938 56.714844 93.351562 C 55.367188 95.371094 54.070312 97.417969 52.824219 99.5 C 51.574219 101.582031 50.378906 103.691406 49.234375 105.832031 C 48.09375 107.972656 47 110.140625 45.964844 112.332031 C 44.925781 114.527344 43.941406 116.746094 43.015625 118.988281 C 42.085938 121.230469 41.214844 123.492188 40.394531 125.777344 C 39.578125 128.0625 38.816406 130.363281 38.113281 132.6875 C 37.410156 135.007812 36.761719 137.347656 36.171875 139.699219 C 35.582031 142.054688 35.050781 144.421875 34.578125 146.800781 C 34.105469 149.179688 33.6875 151.570312 33.332031 153.972656 C 32.976562 156.371094 32.679688 158.78125 32.441406 161.195312 C 32.203125 163.609375 32.027344 166.027344 31.90625 168.453125 C 31.789062 170.875 31.726562 173.300781 31.726562 175.726562 C 31.726562 178.15625 31.789062 180.578125 31.90625 183.003906 C 32.027344 185.425781 32.203125 187.847656 32.441406 190.261719 C 32.679688 192.675781 32.976562 195.082031 33.332031 197.484375 C 33.6875 199.882812 34.105469 202.273438 34.578125 204.652344 C 35.050781 207.035156 35.582031 209.402344 36.171875 211.753906 C 36.761719 214.109375 37.410156 216.445312 38.113281 218.769531 C 38.816406 221.089844 39.578125 223.394531 40.394531 225.679688 C 41.214844 227.964844 42.085938 230.226562 43.015625 232.46875 C 43.941406 234.710938 44.925781 236.929688 45.964844 239.121094 C 47 241.316406 48.09375 243.484375 49.234375 245.621094 C 50.378906 247.761719 51.574219 249.875 52.824219 251.953125 C 54.070312 254.035156 55.367188 256.085938 56.714844 258.101562 C 58.066406 260.121094 59.460938 262.105469 60.90625 264.054688 C 62.351562 266.003906 63.84375 267.914062 65.382812 269.789062 C 66.921875 271.664062 68.507812 273.503906 70.136719 275.300781 C 71.765625 277.097656 73.441406 278.855469 75.15625 280.570312 C 76.871094 282.289062 78.628906 283.960938 80.425781 285.589844 C 82.222656 287.21875 84.0625 288.804688 85.9375 290.34375 C 87.8125 291.882812 89.726562 293.375 91.675781 294.820312 C 93.625 296.265625 95.605469 297.664062 97.625 299.011719 C 99.640625 300.359375 101.691406 301.65625 103.773438 302.90625 C 105.855469 304.152344 107.964844 305.347656 110.105469 306.492188 C 112.246094 307.636719 114.410156 308.726562 116.605469 309.761719 C 118.800781 310.800781 121.015625 311.785156 123.257812 312.710938 C 125.5 313.640625 127.765625 314.515625 130.046875 315.332031 C 132.332031 316.148438 134.636719 316.910156 136.957031 317.613281 C 139.28125 318.320312 141.617188 318.964844 143.972656 319.554688 C 146.328125 320.144531 148.695312 320.675781 151.074219 321.148438 C 153.453125 321.625 155.84375 322.039062 158.242188 322.394531 C 160.644531 322.75 163.050781 323.046875 165.464844 323.285156 C 167.882812 323.523438 170.300781 323.703125 172.722656 323.820312 C 175.148438 323.941406 177.574219 324 180 324 C 182.425781 324 184.851562 323.941406 187.273438 323.820312 C 189.699219 323.703125 192.117188 323.523438 194.53125 323.285156 C 196.949219 323.046875 199.355469 322.75 201.753906 322.394531 C 204.15625 322.039062 206.546875 321.625 208.925781 321.148438 C 211.304688 320.675781 213.671875 320.144531 216.027344 319.554688 C 218.378906 318.964844 220.71875 318.320312 223.039062 317.613281 C 225.363281 316.910156 227.667969 316.148438 229.949219 315.332031 C 232.234375 314.515625 234.5 313.640625 236.742188 312.710938 C 238.984375 311.785156 241.199219 310.800781 243.394531 309.761719 C 245.585938 308.726562 247.753906 307.636719 249.894531 306.492188 C 252.035156 305.347656 254.144531 304.152344 256.226562 302.90625 C 258.308594 301.65625 260.355469 300.359375 262.375 299.011719 C 264.390625 297.664062 266.375 296.265625 268.324219 294.820312 C 270.273438 293.375 272.1875 291.882812 274.0625 290.34375 C 275.9375 288.804688 277.773438 287.21875 279.574219 285.589844 C 281.371094 283.960938 283.128906 282.289062 284.84375 280.570312 C 286.558594 278.855469 288.230469 277.097656 289.863281 275.300781 C 291.492188 273.503906 293.074219 271.664062 294.613281 269.789062 C 296.15625 267.914062 297.648438 266.003906 299.09375 264.054688 C 300.539062 262.105469 301.933594 260.121094 303.28125 258.101562 C 304.632812 256.085938 305.929688 254.035156 307.175781 251.953125 C 308.421875 249.875 309.621094 247.761719 310.761719 245.621094 C 311.90625 243.484375 312.996094 241.316406 314.035156 239.121094 C 315.074219 236.929688 316.054688 234.710938 316.984375 232.46875 C 317.914062 230.226562 318.785156 227.964844 319.605469 225.679688 C 320.421875 223.394531 321.183594 221.089844 321.886719 218.769531 C 322.589844 216.445312 323.238281 214.109375 323.828125 211.753906 C 324.417969 209.402344 324.949219 207.035156 325.421875 204.652344 C 325.894531 202.273438 326.308594 199.882812 326.667969 197.484375 C 327.023438 195.082031 327.320312 192.675781 327.558594 190.261719 C 327.796875 187.847656 327.972656 185.425781 328.09375 183.003906 C 328.210938 180.578125 328.269531 178.15625 328.269531 175.726562 C 328.269531 173.300781 328.210938 170.875 328.089844 168.453125 C 327.972656 166.027344 327.792969 163.609375 327.554688 161.195312 C 327.316406 158.78125 327.019531 156.371094 326.664062 153.972656 C 326.308594 151.574219 325.894531 149.183594 325.417969 146.804688 C 324.945312 144.421875 324.414062 142.054688 323.824219 139.703125 C 323.234375 137.347656 322.585938 135.011719 321.882812 132.6875 C 321.179688 130.367188 320.417969 128.0625 319.597656 125.777344 C 318.78125 123.496094 317.910156 121.230469 316.980469 118.988281 C 316.050781 116.746094 315.066406 114.53125 314.03125 112.335938 C 312.992188 110.144531 311.902344 107.976562 310.757812 105.835938 C 309.613281 103.695312 308.417969 101.585938 307.171875 99.503906 C 305.921875 97.425781 304.625 95.375 303.277344 93.355469 C 301.929688 91.339844 300.53125 89.355469 299.085938 87.40625 C 297.640625 85.457031 296.148438 83.546875 294.609375 81.671875 C 293.070312 79.792969 291.484375 77.957031 289.855469 76.160156 C 288.226562 74.363281 286.554688 72.605469 284.839844 70.890625 C 283.121094 69.171875 281.367188 67.5 279.566406 65.871094 C 277.769531 64.242188 275.933594 62.65625 274.058594 61.117188 C 272.179688 59.578125 270.269531 58.085938 268.320312 56.640625 C 266.371094 55.195312 264.386719 53.796875 262.371094 52.449219 C 260.351562 51.101562 258.304688 49.804688 256.222656 48.558594 C 254.140625 47.308594 252.03125 46.113281 249.890625 44.96875 C 247.75 43.824219 245.585938 42.734375 243.390625 41.695312 C 241.195312 40.660156 238.980469 39.675781 236.738281 38.746094 C 234.496094 37.820312 232.234375 36.945312 229.949219 36.128906 C 227.664062 35.3125 225.359375 34.550781 223.039062 33.84375 C 220.714844 33.140625 218.378906 32.492188 216.023438 31.902344 C 213.671875 31.3125 211.304688 30.78125 208.925781 30.308594 C 206.542969 29.835938 204.15625 29.417969 201.753906 29.0625 C 199.355469 28.707031 196.945312 28.410156 194.53125 28.171875 C 192.117188 27.933594 189.699219 27.753906 187.273438 27.636719 C 184.851562 27.515625 182.425781 27.457031 180 27.457031 Z M 111.703125 102.566406 L 248.296875 102.566406 C 249.742188 102.5625 251.179688 102.691406 252.601562 102.945312 C 254.023438 103.203125 255.414062 103.578125 256.769531 104.082031 C 258.125 104.585938 259.425781 105.203125 260.671875 105.9375 C 261.917969 106.671875 263.089844 107.507812 264.1875 108.453125 C 265.28125 109.394531 266.289062 110.425781 267.199219 111.546875 C 268.113281 112.667969 268.917969 113.863281 269.621094 115.128906 C 270.320312 116.394531 270.902344 117.710938 271.367188 119.078125 C 271.832031 120.449219 272.175781 121.847656 272.390625 123.277344 C 270.445312 124.34375 195.382812 167.621094 190.425781 170.445312 C 188.835938 171.34375 187.15625 172.027344 185.390625 172.492188 C 183.625 172.957031 181.828125 173.191406 180 173.191406 C 178.171875 173.191406 176.375 172.957031 174.609375 172.492188 C 172.84375 172.027344 171.164062 171.34375 169.574219 170.445312 C 164.710938 167.664062 89.460938 124.804688 87.609375 123.648438 C 87.703125 122.925781 87.832031 122.210938 87.996094 121.5 C 88.15625 120.789062 88.347656 120.085938 88.574219 119.394531 C 88.796875 118.699219 89.050781 118.019531 89.335938 117.347656 C 89.625 116.675781 89.9375 116.019531 90.28125 115.378906 C 90.628906 114.738281 91 114.113281 91.402344 113.503906 C 91.800781 112.894531 92.230469 112.304688 92.683594 111.734375 C 93.136719 111.167969 93.613281 110.617188 94.117188 110.089844 C 94.621094 109.5625 95.148438 109.058594 95.695312 108.582031 C 96.242188 108.101562 96.8125 107.644531 97.402344 107.21875 C 97.988281 106.789062 98.597656 106.386719 99.222656 106.015625 C 99.847656 105.640625 100.488281 105.292969 101.144531 104.976562 C 101.800781 104.660156 102.46875 104.375 103.152344 104.117188 C 103.835938 103.863281 104.527344 103.636719 105.230469 103.445312 C 105.929688 103.25 106.640625 103.085938 107.355469 102.957031 C 108.074219 102.828125 108.796875 102.730469 109.519531 102.664062 C 110.246094 102.597656 110.972656 102.566406 111.703125 102.566406 Z M 272.667969 224.519531 C 272.667969 225.316406 272.628906 226.113281 272.550781 226.90625 C 272.46875 227.699219 272.351562 228.488281 272.195312 229.269531 C 272.039062 230.054688 271.84375 230.828125 271.613281 231.589844 C 271.382812 232.351562 271.113281 233.105469 270.804688 233.839844 C 270.5 234.578125 270.160156 235.296875 269.78125 236 C 269.40625 236.703125 268.996094 237.386719 268.554688 238.050781 C 268.109375 238.714844 267.632812 239.355469 267.128906 239.972656 C 266.621094 240.589844 266.085938 241.179688 265.523438 241.742188 C 264.957031 242.308594 264.367188 242.84375 263.75 243.347656 C 263.132812 243.855469 262.492188 244.332031 261.832031 244.773438 C 261.167969 245.21875 260.484375 245.628906 259.78125 246.003906 C 259.078125 246.378906 258.355469 246.722656 257.621094 247.027344 C 256.882812 247.332031 256.132812 247.601562 255.367188 247.835938 C 254.605469 248.066406 253.832031 248.261719 253.050781 248.417969 C 252.265625 248.574219 251.480469 248.691406 250.683594 248.769531 C 249.890625 248.847656 249.09375 248.890625 248.296875 248.890625 L 111.703125 248.890625 C 110.902344 248.890625 110.109375 248.847656 109.3125 248.769531 C 108.519531 248.691406 107.730469 248.574219 106.949219 248.417969 C 106.167969 248.261719 105.394531 248.066406 104.628906 247.835938 C 103.867188 247.601562 103.117188 247.332031 102.378906 247.027344 C 101.644531 246.722656 100.921875 246.378906 100.21875 246.003906 C 99.515625 245.628906 98.832031 245.21875 98.167969 244.773438 C 97.503906 244.332031 96.867188 243.855469 96.25 243.347656 C 95.632812 242.84375 95.042969 242.308594 94.476562 241.742188 C 93.914062 241.179688 93.378906 240.589844 92.871094 239.972656 C 92.363281 239.355469 91.890625 238.714844 91.445312 238.050781 C 91.003906 237.386719 90.59375 236.703125 90.214844 236 C 89.839844 235.296875 89.5 234.578125 89.191406 233.839844 C 88.886719 233.105469 88.617188 232.351562 88.386719 231.589844 C 88.152344 230.828125 87.960938 230.054688 87.804688 229.269531 C 87.648438 228.488281 87.527344 227.699219 87.449219 226.90625 C 87.371094 226.113281 87.332031 225.316406 87.328125 224.519531 L 87.328125 134.722656 L 164.800781 178.925781 C 165.957031 179.582031 167.148438 180.164062 168.378906 180.667969 C 169.609375 181.167969 170.867188 181.589844 172.148438 181.929688 C 173.433594 182.269531 174.734375 182.527344 176.054688 182.699219 C 177.371094 182.871094 178.695312 182.957031 180.023438 182.957031 C 181.351562 182.957031 182.675781 182.871094 183.992188 182.699219 C 185.308594 182.527344 186.609375 182.269531 187.894531 181.929688 C 189.179688 181.589844 190.4375 181.167969 191.667969 180.667969 C 192.898438 180.164062 194.089844 179.582031 195.242188 178.925781 L 272.667969 134.351562 Z M 272.667969 224.519531 " fill-opacity="1" fill-rule="nonzero"/></g></svg>