<svg xmlns="http://www.w3.org/2000/svg" xmlns:xlink="http://www.w3.org/1999/xlink" width="480" zoomAndPan="magnify" viewBox="0 0 360 359.999987" height="480" preserveAspectRatio="xMidYMid meet" version="1.0"><path fill="#3affba" d="M 79.851562 38.273438 C 50.976562 38.273438 27.457031 61.792969 27.457031 90.671875 C 27.457031 103.332031 31.976562 114.960938 39.492188 124.03125 L 113.675781 50.707031 C 104.539062 42.960938 92.734375 38.273438 79.851562 38.273438 Z M 120.960938 58.25 L 46.949219 131.402344 C 55.953125 138.691406 67.402344 143.066406 79.851562 143.066406 C 108.730469 143.066406 132.25 119.546875 132.25 90.671875 C 132.25 78.441406 128.019531 67.179688 120.960938 58.25 Z M 120.960938 58.25 " fill-opacity="1" fill-rule="nonzero"/><path fill="#3affba" d="M 252.910156 62.214844 C 235.484375 62.214844 218.050781 68.871094 204.742188 82.183594 L 141.230469 145.695312 L 236.660156 242.925781 L 301.070312 178.511719 C 327.691406 151.894531 327.691406 108.800781 301.070312 82.183594 C 287.761719 68.871094 270.339844 62.214844 252.910156 62.214844 Z M 133.820312 153.101562 L 71.363281 215.558594 C 44.746094 242.179688 44.746094 285.269531 71.363281 311.890625 C 97.984375 338.511719 141.074219 338.511719 167.695312 311.890625 L 229.25 250.335938 Z M 143.582031 193.667969 C 144.28125 193.667969 144.953125 193.804688 145.59375 194.070312 C 146.238281 194.339844 146.808594 194.71875 147.296875 195.214844 C 147.542969 195.457031 147.757812 195.722656 147.949219 196.007812 C 148.140625 196.296875 148.300781 196.597656 148.433594 196.914062 C 148.566406 197.234375 148.664062 197.558594 148.730469 197.898438 C 148.800781 198.234375 148.832031 198.574219 148.832031 198.917969 C 148.832031 199.261719 148.800781 199.605469 148.730469 199.941406 C 148.664062 200.277344 148.566406 200.605469 148.433594 200.925781 C 148.300781 201.242188 148.140625 201.542969 147.949219 201.832031 C 147.757812 202.117188 147.542969 202.382812 147.296875 202.625 L 117.121094 232.804688 C 116.875 233.046875 116.609375 233.265625 116.324219 233.457031 C 116.039062 233.644531 115.738281 233.808594 115.417969 233.9375 C 115.101562 234.070312 114.773438 234.171875 114.4375 234.238281 C 114.097656 234.304688 113.757812 234.339844 113.414062 234.339844 C 113.070312 234.339844 112.730469 234.304688 112.390625 234.238281 C 112.054688 234.171875 111.726562 234.070312 111.410156 233.9375 C 111.09375 233.808594 110.789062 233.644531 110.503906 233.457031 C 110.21875 233.265625 109.953125 233.046875 109.710938 232.804688 C 109.464844 232.558594 109.25 232.296875 109.058594 232.011719 C 108.867188 231.722656 108.707031 231.421875 108.574219 231.105469 C 108.441406 230.785156 108.34375 230.457031 108.277344 230.121094 C 108.210938 229.785156 108.175781 229.441406 108.175781 229.097656 C 108.175781 228.753906 108.210938 228.414062 108.277344 228.078125 C 108.34375 227.738281 108.441406 227.410156 108.574219 227.09375 C 108.707031 226.777344 108.867188 226.472656 109.058594 226.1875 C 109.25 225.902344 109.464844 225.636719 109.710938 225.394531 L 139.878906 195.214844 C 140.371094 194.722656 140.9375 194.339844 141.578125 194.074219 C 142.21875 193.804688 142.886719 193.671875 143.582031 193.667969 Z M 143.582031 193.667969 " fill-opacity="1" fill-rule="nonzero"/></svg>