<svg xmlns="http://www.w3.org/2000/svg" xmlns:xlink="http://www.w3.org/1999/xlink" width="480" zoomAndPan="magnify" viewBox="0 0 360 359.999987" height="480" preserveAspectRatio="xMidYMid meet" version="1.0"><defs><clipPath id="3d35815b2c"><path d="M 156 274.097656 L 204.394531 274.097656 L 204.394531 294.523438 L 156 294.523438 Z M 156 274.097656 " clip-rule="nonzero"/></clipPath><clipPath id="c90d63795e"><path d="M 157 65.398438 L 203 65.398438 L 203 89 L 157 89 Z M 157 65.398438 " clip-rule="nonzero"/></clipPath><clipPath id="e4af8a5788"><path d="M 38.953125 114 L 72 114 L 72 225 L 38.953125 225 Z M 38.953125 114 " clip-rule="nonzero"/></clipPath><clipPath id="214681b039"><path d="M 291.328125 115.503906 L 320.953125 115.503906 L 320.953125 218 L 291.328125 218 Z M 291.328125 115.503906 " clip-rule="nonzero"/></clipPath></defs><g clip-path="url(#3d35815b2c)"><path fill="#3affba" d="M 195.605469 274.332031 L 156.363281 274.332031 C 158.296875 285.777344 168.273438 294.523438 180.261719 294.523438 C 192.246094 294.523438 202.222656 285.777344 204.15625 274.332031 L 195.605469 274.332031 " fill-opacity="1" fill-rule="nonzero"/></g><g clip-path="url(#c90d63795e)"><path fill="#3affba" d="M 166.195312 86.589844 C 170.75 85.652344 175.453125 85.15625 180.261719 85.15625 C 185.070312 85.15625 189.769531 85.652344 194.324219 86.589844 C 195.789062 86.890625 197.242188 87.234375 198.675781 87.625 C 200.109375 88.015625 201.527344 88.460938 202.929688 88.941406 C 202.671875 75.941406 192.605469 65.453125 180.261719 65.453125 C 167.914062 65.453125 157.847656 75.941406 157.589844 88.941406 C 158.992188 88.460938 160.410156 88.015625 161.847656 87.625 C 163.277344 87.234375 164.730469 86.890625 166.195312 86.589844 " fill-opacity="1" fill-rule="nonzero"/></g><path fill="#3affba" d="M 264.449219 242.730469 C 258.902344 237.496094 253.167969 232.085938 248.558594 224.636719 C 241.082031 212.558594 245.707031 168.078125 245.839844 166.820312 L 245.789062 166.480469 L 245.800781 166.109375 C 245.828125 165.296875 245.839844 164.539062 245.839844 163.804688 C 245.839844 133.417969 227.75 107.476562 202.503906 97.691406 C 201.140625 97.164062 199.757812 96.683594 198.355469 96.25 C 196.984375 95.828125 195.59375 95.457031 194.183594 95.128906 C 189.695312 94.085938 185.035156 93.527344 180.261719 93.527344 C 175.484375 93.527344 170.824219 94.085938 166.335938 95.128906 C 164.925781 95.457031 163.535156 95.828125 162.164062 96.25 C 160.761719 96.683594 159.378906 97.164062 158.019531 97.691406 C 132.769531 107.476562 114.679688 133.417969 114.679688 163.804688 C 114.679688 164.539062 114.691406 165.296875 114.71875 166.109375 L 114.730469 166.480469 L 114.679688 166.820312 C 114.820312 168.148438 119.433594 212.570312 111.960938 224.636719 C 107.351562 232.085938 101.617188 237.496094 96.070312 242.730469 C 93.316406 245.332031 90.152344 250.492188 88.011719 255.871094 C 85.902344 261.175781 85.585938 264.589844 85.777344 265.960938 L 275.175781 265.960938 C 275.417969 264.746094 275.136719 261.339844 272.816406 255.863281 C 270.570312 250.566406 267.285156 245.410156 264.449219 242.730469 " fill-opacity="1" fill-rule="nonzero"/><path fill="#3affba" d="M 90.082031 204.320312 C 93.1875 202.105469 93.910156 197.792969 91.699219 194.683594 C 86.070312 186.785156 83.09375 177.460938 83.09375 167.722656 C 83.09375 158.433594 85.820312 149.46875 90.976562 141.796875 C 93.105469 138.632812 92.265625 134.34375 89.097656 132.214844 C 85.933594 130.085938 81.640625 130.925781 79.511719 134.089844 C 72.816406 144.046875 69.277344 155.679688 69.277344 167.722656 C 69.277344 180.351562 73.140625 192.449219 80.445312 202.699219 C 81.792969 204.59375 83.921875 205.601562 86.078125 205.601562 C 87.464844 205.601562 88.863281 205.183594 90.082031 204.320312 " fill-opacity="1" fill-rule="nonzero"/><g clip-path="url(#e4af8a5788)"><path fill="#3affba" d="M 55.699219 167.722656 C 55.699219 153.398438 59.792969 139.511719 67.542969 127.558594 C 70.058594 123.679688 68.953125 118.496094 65.070312 115.980469 C 61.191406 113.460938 56.007812 114.570312 53.492188 118.449219 C 43.980469 133.121094 38.953125 150.160156 38.953125 167.722656 C 38.953125 187.050781 44.949219 205.496094 56.292969 221.070312 C 57.933594 223.320312 60.480469 224.515625 63.066406 224.515625 C 64.777344 224.515625 66.503906 223.992188 67.988281 222.910156 C 71.726562 220.1875 72.550781 214.949219 69.828125 211.214844 C 60.582031 198.519531 55.699219 183.480469 55.699219 167.722656 " fill-opacity="1" fill-rule="nonzero"/></g><path fill="#3affba" d="M 270.402344 131.582031 C 267.269531 133.757812 266.488281 138.0625 268.664062 141.195312 C 274.070312 148.988281 276.929688 158.148438 276.929688 167.679688 C 276.929688 176.9375 274.222656 185.875 269.097656 193.53125 C 266.972656 196.699219 267.824219 200.988281 270.992188 203.109375 C 272.171875 203.902344 273.507812 204.28125 274.828125 204.28125 C 277.054688 204.28125 279.242188 203.207031 280.574219 201.214844 C 287.226562 191.28125 290.746094 179.683594 290.746094 167.679688 C 290.746094 155.320312 287.035156 143.4375 280.015625 133.320312 C 277.839844 130.1875 273.535156 129.410156 270.402344 131.582031 " fill-opacity="1" fill-rule="nonzero"/><g clip-path="url(#214681b039)"><path fill="#3affba" d="M 307.324219 119.648438 C 304.871094 115.730469 299.707031 114.539062 295.785156 116.988281 C 291.863281 119.441406 290.675781 124.609375 293.125 128.53125 C 300.457031 140.246094 304.328125 153.78125 304.328125 167.679688 C 304.328125 180.894531 300.804688 193.855469 294.140625 205.167969 C 291.789062 209.152344 293.117188 214.285156 297.101562 216.628906 C 298.4375 217.417969 299.898438 217.792969 301.34375 217.792969 C 304.210938 217.792969 307.003906 216.316406 308.566406 213.667969 C 316.746094 199.785156 321.070312 183.882812 321.070312 167.679688 C 321.070312 150.636719 316.316406 134.03125 307.324219 119.648438 " fill-opacity="1" fill-rule="nonzero"/></g></svg>