<svg xmlns="http://www.w3.org/2000/svg" xmlns:xlink="http://www.w3.org/1999/xlink" width="480" zoomAndPan="magnify" viewBox="0 0 360 359.999987" height="480" preserveAspectRatio="xMidYMid meet" version="1.0"><defs><clipPath id="d206ab771f"><path d="M 61 19.613281 L 299.984375 19.613281 L 299.984375 329.363281 L 61 329.363281 Z M 61 19.613281 " clip-rule="nonzero"/></clipPath></defs><g clip-path="url(#d206ab771f)"><path fill="#3affba" d="M 61.035156 291.617188 C 61.035156 312.511719 78.03125 329.503906 98.925781 329.503906 L 262.066406 329.503906 C 282.957031 329.503906 299.953125 312.511719 299.953125 291.617188 L 299.953125 177.460938 C 299.953125 160.464844 288.65625 146.269531 273.363281 141.472656 L 273.363281 112.480469 C 273.363281 61.300781 231.675781 19.613281 180.496094 19.613281 C 129.3125 19.613281 87.628906 61.300781 87.628906 112.480469 L 87.628906 141.472656 C 72.332031 146.269531 61.035156 160.464844 61.035156 177.460938 Z M 195.488281 261.730469 L 195.488281 265.328125 C 195.488281 273.625 188.792969 280.324219 180.496094 280.324219 C 172.199219 280.324219 165.5 273.625 165.5 265.328125 L 165.5 261.730469 C 152.003906 255.933594 142.410156 242.4375 142.410156 226.839844 C 142.410156 205.847656 159.503906 188.753906 180.496094 188.753906 C 201.488281 188.753906 218.582031 205.847656 218.582031 226.839844 C 218.582031 242.4375 208.984375 255.933594 195.488281 261.730469 Z M 117.617188 112.480469 C 117.617188 77.792969 145.808594 49.605469 180.496094 49.605469 C 215.183594 49.605469 243.371094 77.792969 243.371094 112.480469 L 243.371094 139.574219 L 117.617188 139.574219 Z M 117.617188 112.480469 " fill-opacity="1" fill-rule="nonzero"/></g><path fill="#3affba" d="M 180.496094 218.746094 C 176.097656 218.746094 172.398438 222.34375 172.398438 226.839844 C 172.398438 231.238281 176.097656 234.839844 180.496094 234.839844 C 184.894531 234.839844 188.59375 231.238281 188.59375 226.839844 C 188.59375 222.34375 184.894531 218.746094 180.496094 218.746094 Z M 180.496094 218.746094 " fill-opacity="1" fill-rule="nonzero"/></svg>