<svg xmlns="http://www.w3.org/2000/svg" xmlns:xlink="http://www.w3.org/1999/xlink" width="480" zoomAndPan="magnify" viewBox="0 0 360 359.999987" height="480" preserveAspectRatio="xMidYMid meet" version="1.0"><defs><clipPath id="f14bc02810"><path d="M 211 63 L 252 63 L 252 104 L 211 104 Z M 211 63 " clip-rule="nonzero"/></clipPath><clipPath id="f636dd8caf"><path d="M 103.75 70.417969 L 318.152344 21.429688 L 379.136719 288.339844 L 164.730469 337.328125 Z M 103.75 70.417969 " clip-rule="nonzero"/></clipPath><clipPath id="923510037a"><path d="M 103.75 70.417969 L 318.152344 21.429688 L 379.136719 288.339844 L 164.730469 337.328125 Z M 103.75 70.417969 " clip-rule="nonzero"/></clipPath><clipPath id="23bd89f566"><path d="M 151 27 L 320 27 L 320 313 L 151 313 Z M 151 27 " clip-rule="nonzero"/></clipPath><clipPath id="826945bfe8"><path d="M 103.75 70.417969 L 318.152344 21.429688 L 379.136719 288.339844 L 164.730469 337.328125 Z M 103.75 70.417969 " clip-rule="nonzero"/></clipPath><clipPath id="0b49aedcc1"><path d="M 103.75 70.417969 L 318.152344 21.429688 L 379.136719 288.339844 L 164.730469 337.328125 Z M 103.75 70.417969 " clip-rule="nonzero"/></clipPath><clipPath id="4a75843556"><path d="M 23.085938 188.277344 L 63 188.277344 L 63 228 L 23.085938 228 Z M 23.085938 188.277344 " clip-rule="nonzero"/></clipPath></defs><path fill="#011f16" d="M 207.6875 139.804688 C 189.640625 147.3125 174.292969 160.109375 163.507812 176.929688 C 151.726562 195.308594 146.933594 216.195312 148.46875 236.457031 L 78.882812 191.824219 C 52.542969 174.917969 44.890625 139.886719 61.792969 113.546875 C 72.597656 96.664062 90.871094 87.453125 109.539062 87.453125 C 120.011719 87.453125 130.613281 90.359375 140.070312 96.433594 Z M 207.6875 139.804688 " fill-opacity="1" fill-rule="nonzero"/><path fill="#00272c" d="M 148.46875 236.457031 L 78.882812 191.824219 C 52.542969 174.917969 44.890625 139.886719 61.792969 113.546875 C 64.28125 109.667969 67.144531 106.203125 70.316406 103.175781 C 61.9375 127.339844 70.792969 154.988281 93.277344 169.402344 L 150.917969 206.363281 C 148.492188 216.296875 147.703125 226.460938 148.46875 236.457031 Z M 148.46875 236.457031 " fill-opacity="1" fill-rule="nonzero"/><path fill="#02d282" d="M 303.902344 253.03125 C 302.472656 257.179688 300.523438 261.222656 298.054688 265.082031 C 287.226562 281.964844 268.953125 291.152344 250.289062 291.152344 C 239.8125 291.152344 229.214844 288.269531 219.757812 282.191406 L 155.832031 241.1875 L 148.46875 236.457031 C 147.703125 226.460938 148.492188 216.296875 150.917969 206.363281 C 153.363281 196.179688 157.535156 186.222656 163.507812 176.929688 C 174.292969 160.109375 189.640625 147.3125 207.6875 139.804688 L 214.820312 144.386719 L 280.941406 186.804688 C 303.425781 201.21875 312.304688 228.867188 303.902344 253.03125 Z M 303.902344 253.03125 " fill-opacity="1" fill-rule="nonzero"/><path fill="#0af7a1" d="M 303.902344 253.03125 C 302.472656 257.179688 300.523438 261.222656 298.054688 265.082031 C 287.226562 281.964844 268.953125 291.152344 250.289062 291.152344 C 239.8125 291.152344 229.214844 288.269531 219.757812 282.191406 L 155.832031 241.1875 L 148.46875 236.457031 C 147.703125 226.460938 148.492188 216.296875 150.917969 206.363281 L 234.152344 259.75 C 243.628906 265.828125 254.230469 268.730469 264.703125 268.730469 C 279.078125 268.730469 293.222656 263.253906 303.902344 253.03125 Z M 303.902344 253.03125 " fill-opacity="1" fill-rule="nonzero"/><path fill="#3ffcb7" d="M 250.234375 293.242188 C 239.121094 293.242188 228.222656 290.070312 218.640625 283.921875 L 147.480469 238.28125 C 147.390625 238.234375 147.304688 238.175781 147.222656 238.117188 L 77.769531 193.566406 C 50.507812 176.078125 42.554688 139.671875 60.039062 112.410156 C 68.511719 99.207031 81.617188 90.089844 96.945312 86.742188 C 112.269531 83.390625 127.984375 86.214844 141.191406 94.683594 L 282.066406 185.042969 C 295.269531 193.511719 304.386719 206.617188 307.738281 221.945312 C 311.085938 237.277344 308.261719 252.992188 299.792969 266.195312 C 291.320312 279.402344 278.214844 288.519531 262.886719 291.867188 C 258.679688 292.789062 254.441406 293.242188 250.234375 293.242188 Z M 150.464844 235.265625 L 220.878906 280.429688 C 233.152344 288.304688 247.753906 290.925781 262.003906 287.816406 C 276.246094 284.703125 288.429688 276.230469 296.300781 263.957031 C 304.171875 251.683594 306.792969 237.078125 303.683594 222.832031 C 300.574219 208.585938 292.101562 196.40625 279.824219 188.535156 L 207.492188 142.136719 C 190.140625 149.589844 175.550781 161.988281 165.25 178.050781 C 154.25 195.214844 149.144531 214.976562 150.464844 235.265625 Z M 298.046875 265.074219 L 298.066406 265.074219 Z M 109.585938 89.519531 C 105.675781 89.519531 101.742188 89.9375 97.828125 90.792969 C 83.582031 93.90625 71.40625 102.378906 63.53125 114.652344 C 47.28125 139.988281 54.671875 173.820312 80.007812 190.074219 L 146.175781 232.511719 C 145.46875 212.398438 150.820312 192.875 161.761719 175.8125 C 172.003906 159.835938 186.3125 147.332031 203.316406 139.460938 L 138.953125 98.175781 C 130.050781 92.464844 119.917969 89.519531 109.585938 89.519531 Z M 109.585938 89.519531 " fill-opacity="1" fill-rule="nonzero"/><g clip-path="url(#f14bc02810)"><g clip-path="url(#f636dd8caf)"><g clip-path="url(#923510037a)"><path fill="#00272c" d="M 250.628906 78.921875 C 253.085938 89.679688 246.359375 100.394531 235.609375 102.851562 C 224.847656 105.308594 214.144531 98.578125 211.683594 87.820312 C 209.230469 77.070312 215.957031 66.355469 226.707031 63.898438 C 237.457031 61.441406 248.171875 68.171875 250.628906 78.921875 Z M 250.628906 78.921875 " fill-opacity="1" fill-rule="nonzero"/></g></g></g><g clip-path="url(#23bd89f566)"><g clip-path="url(#826945bfe8)"><g clip-path="url(#0b49aedcc1)"><path fill="#00272c" d="M 248.589844 268.664062 C 269.851562 256.632812 281.757812 232.910156 275.132812 203.917969 C 269.703125 180.164062 239.890625 163.070312 218.367188 147.027344 C 237.671875 163.0625 257.957031 180.722656 262.976562 202.691406 C 269.363281 230.648438 262.851562 253.949219 248.589844 268.664062 Z M 319.042969 27.171875 C 274.15625 31.453125 269.703125 71.84375 256.292969 102.910156 C 242.792969 134.210938 202.496094 103.53125 193.707031 96.339844 C 203.25 127.007812 278.164062 153.535156 288.300781 197.890625 C 298.625 243.085938 274.53125 277.710938 236.984375 286.289062 C 199.457031 294.863281 162.707031 274.140625 152.382812 228.945312 C 152.105469 227.734375 151.890625 226.492188 151.707031 225.230469 C 148.800781 267.226562 171.042969 302.578125 207.582031 310.34375 C 249.332031 319.21875 295.132812 300.441406 311.496094 246.128906 C 322.417969 209.886719 298.320312 164.828125 284.476562 127.644531 C 260.78125 56.105469 319.042969 27.171875 319.042969 27.171875 Z M 319.042969 27.171875 " fill-opacity="1" fill-rule="nonzero"/></g></g></g><g clip-path="url(#4a75843556)"><path fill="#00272c" d="M 62.007812 207.742188 C 62.007812 208.378906 61.976562 209.011719 61.914062 209.648438 C 61.851562 210.28125 61.757812 210.910156 61.632812 211.535156 C 61.507812 212.160156 61.355469 212.78125 61.167969 213.390625 C 60.984375 214 60.769531 214.597656 60.527344 215.1875 C 60.28125 215.777344 60.011719 216.351562 59.710938 216.914062 C 59.410156 217.476562 59.082031 218.023438 58.726562 218.550781 C 58.375 219.082031 57.996094 219.59375 57.589844 220.085938 C 57.1875 220.578125 56.757812 221.050781 56.308594 221.5 C 55.855469 221.953125 55.386719 222.378906 54.890625 222.785156 C 54.398438 223.1875 53.886719 223.566406 53.359375 223.921875 C 52.828125 224.277344 52.28125 224.601562 51.71875 224.902344 C 51.15625 225.203125 50.582031 225.476562 49.992188 225.71875 C 49.40625 225.964844 48.804688 226.179688 48.195312 226.363281 C 47.585938 226.546875 46.96875 226.703125 46.34375 226.828125 C 45.71875 226.953125 45.089844 227.046875 44.453125 227.109375 C 43.820312 227.171875 43.183594 227.203125 42.546875 227.203125 C 41.910156 227.203125 41.273438 227.171875 40.640625 227.109375 C 40.003906 227.046875 39.375 226.953125 38.75 226.828125 C 38.125 226.703125 37.507812 226.546875 36.898438 226.363281 C 36.289062 226.179688 35.6875 225.964844 35.097656 225.71875 C 34.511719 225.476562 33.933594 225.203125 33.371094 224.902344 C 32.808594 224.601562 32.265625 224.277344 31.734375 223.921875 C 31.203125 223.566406 30.691406 223.1875 30.199219 222.785156 C 29.707031 222.378906 29.234375 221.953125 28.785156 221.5 C 28.335938 221.050781 27.90625 220.578125 27.503906 220.085938 C 27.097656 219.59375 26.71875 219.082031 26.363281 218.550781 C 26.011719 218.023438 25.683594 217.476562 25.382812 216.914062 C 25.082031 216.351562 24.8125 215.777344 24.566406 215.1875 C 24.324219 214.597656 24.109375 214 23.921875 213.390625 C 23.738281 212.78125 23.582031 212.160156 23.460938 211.535156 C 23.335938 210.910156 23.242188 210.28125 23.179688 209.648438 C 23.117188 209.011719 23.085938 208.378906 23.085938 207.742188 C 23.085938 207.101562 23.117188 206.46875 23.179688 205.832031 C 23.242188 205.199219 23.335938 204.570312 23.460938 203.945312 C 23.582031 203.320312 23.738281 202.699219 23.921875 202.089844 C 24.109375 201.480469 24.324219 200.882812 24.566406 200.292969 C 24.8125 199.703125 25.082031 199.128906 25.382812 198.566406 C 25.683594 198.003906 26.011719 197.457031 26.363281 196.929688 C 26.71875 196.398438 27.097656 195.886719 27.503906 195.394531 C 27.90625 194.902344 28.335938 194.429688 28.785156 193.980469 C 29.234375 193.527344 29.707031 193.101562 30.199219 192.695312 C 30.691406 192.292969 31.203125 191.914062 31.734375 191.558594 C 32.265625 191.203125 32.808594 190.878906 33.371094 190.578125 C 33.933594 190.277344 34.511719 190.003906 35.097656 189.761719 C 35.6875 189.515625 36.289062 189.300781 36.898438 189.117188 C 37.507812 188.933594 38.125 188.777344 38.75 188.652344 C 39.375 188.527344 40.003906 188.433594 40.640625 188.371094 C 41.273438 188.308594 41.910156 188.277344 42.546875 188.277344 C 43.183594 188.277344 43.820312 188.308594 44.453125 188.371094 C 45.089844 188.433594 45.71875 188.527344 46.34375 188.652344 C 46.96875 188.777344 47.585938 188.933594 48.195312 189.117188 C 48.804688 189.300781 49.40625 189.515625 49.992188 189.761719 C 50.582031 190.003906 51.15625 190.277344 51.71875 190.578125 C 52.28125 190.878906 52.828125 191.203125 53.359375 191.558594 C 53.886719 191.914062 54.398438 192.292969 54.890625 192.695312 C 55.386719 193.101562 55.855469 193.527344 56.308594 193.980469 C 56.757812 194.429688 57.1875 194.902344 57.589844 195.394531 C 57.996094 195.886719 58.375 196.398438 58.726562 196.929688 C 59.082031 197.457031 59.410156 198.003906 59.710938 198.566406 C 60.011719 199.128906 60.28125 199.703125 60.527344 200.292969 C 60.769531 200.882812 60.984375 201.480469 61.167969 202.089844 C 61.355469 202.699219 61.507812 203.320312 61.632812 203.945312 C 61.757812 204.570312 61.851562 205.199219 61.914062 205.832031 C 61.976562 206.46875 62.007812 207.101562 62.007812 207.742188 Z M 62.007812 207.742188 " fill-opacity="1" fill-rule="nonzero"/></g></svg>