<svg xmlns="http://www.w3.org/2000/svg" xmlns:xlink="http://www.w3.org/1999/xlink" width="480" zoomAndPan="magnify" viewBox="0 0 360 359.999987" height="480" preserveAspectRatio="xMidYMid meet" version="1.0"><defs><clipPath id="1027cf21f1"><path d="M 189 73 L 226 73 L 226 110 L 189 110 Z M 189 73 " clip-rule="nonzero"/></clipPath><clipPath id="717c894a72"><path d="M 91.367188 79.945312 L 286.542969 35.355469 L 342.160156 278.796875 L 146.988281 323.386719 Z M 91.367188 79.945312 " clip-rule="nonzero"/></clipPath><clipPath id="b110b0e1ae"><path d="M 91.367188 79.945312 L 286.542969 35.355469 L 342.160156 278.796875 L 146.988281 323.386719 Z M 91.367188 79.945312 " clip-rule="nonzero"/></clipPath><clipPath id="82e3ca6842"><path d="M 134 40 L 288 40 L 288 301 L 134 301 Z M 134 40 " clip-rule="nonzero"/></clipPath><clipPath id="32f7d3e9cd"><path d="M 91.367188 79.945312 L 286.542969 35.355469 L 342.160156 278.796875 L 146.988281 323.386719 Z M 91.367188 79.945312 " clip-rule="nonzero"/></clipPath><clipPath id="9911f80bd2"><path d="M 91.367188 79.945312 L 286.542969 35.355469 L 342.160156 278.796875 L 146.988281 323.386719 Z M 91.367188 79.945312 " clip-rule="nonzero"/></clipPath><clipPath id="29cec5d001"><path d="M 17.9375 187.242188 L 52.382812 187.242188 L 52.382812 221.6875 L 17.9375 221.6875 Z M 17.9375 187.242188 " clip-rule="nonzero"/></clipPath></defs><path fill="#011f16" d="M 186.003906 143.125 C 169.574219 149.960938 155.597656 161.613281 145.777344 176.929688 C 135.050781 193.664062 130.6875 212.679688 132.085938 231.132812 L 68.722656 190.492188 C 44.738281 175.097656 37.769531 143.203125 53.164062 119.21875 C 63.003906 103.84375 79.640625 95.460938 96.636719 95.460938 C 106.175781 95.460938 115.824219 98.101562 124.4375 103.636719 Z M 186.003906 143.125 " fill-opacity="1" fill-rule="nonzero"/><path fill="#00272c" d="M 132.085938 231.132812 L 68.722656 190.492188 C 44.738281 175.097656 37.769531 143.203125 53.164062 119.21875 C 55.429688 115.6875 58.035156 112.53125 60.925781 109.773438 C 53.296875 131.777344 61.359375 156.949219 81.832031 170.074219 L 134.3125 203.730469 C 132.105469 212.773438 131.386719 222.027344 132.085938 231.132812 Z M 132.085938 231.132812 " fill-opacity="1" fill-rule="nonzero"/><path fill="#02d282" d="M 273.613281 246.222656 C 272.308594 250 270.535156 253.679688 268.285156 257.195312 C 258.429688 272.566406 241.789062 280.933594 224.792969 280.933594 C 215.257812 280.933594 205.605469 278.308594 196.992188 272.773438 L 138.789062 235.4375 L 132.085938 231.132812 C 131.386719 222.027344 132.105469 212.773438 134.3125 203.730469 C 136.542969 194.457031 140.335938 185.390625 145.777344 176.929688 C 155.597656 161.613281 169.574219 149.960938 186.003906 143.125 L 192.5 147.300781 L 252.707031 185.921875 C 273.175781 199.046875 281.261719 224.21875 273.613281 246.222656 Z M 273.613281 246.222656 " fill-opacity="1" fill-rule="nonzero"/><path fill="#0af7a1" d="M 273.613281 246.222656 C 272.308594 250 270.535156 253.679688 268.285156 257.195312 C 258.429688 272.566406 241.789062 280.933594 224.792969 280.933594 C 215.257812 280.933594 205.605469 278.308594 196.992188 272.773438 L 138.789062 235.4375 L 132.085938 231.132812 C 131.386719 222.027344 132.105469 212.773438 134.3125 203.730469 L 210.101562 252.339844 C 218.730469 257.875 228.382812 260.515625 237.917969 260.515625 C 251.007812 260.515625 263.886719 255.53125 273.613281 246.222656 Z M 273.613281 246.222656 " fill-opacity="1" fill-rule="nonzero"/><path fill="#3ffcb7" d="M 224.746094 282.835938 C 214.625 282.835938 204.699219 279.945312 195.976562 274.351562 L 131.183594 232.792969 C 131.101562 232.75 131.023438 232.699219 130.949219 232.644531 L 67.707031 192.078125 C 42.886719 176.152344 35.644531 143.003906 51.566406 118.183594 C 59.28125 106.160156 71.214844 97.859375 85.167969 94.808594 C 99.125 91.757812 113.433594 94.328125 125.457031 102.042969 L 253.726562 184.316406 C 265.75 192.03125 274.050781 203.960938 277.101562 217.917969 C 280.148438 231.878906 277.582031 246.183594 269.867188 258.210938 C 262.15625 270.234375 250.222656 278.535156 236.265625 281.585938 C 232.433594 282.421875 228.574219 282.835938 224.746094 282.835938 Z M 133.898438 230.046875 L 198.015625 271.171875 C 209.191406 278.339844 222.488281 280.726562 235.460938 277.894531 C 248.429688 275.058594 259.519531 267.34375 266.6875 256.171875 C 273.855469 244.996094 276.246094 231.695312 273.410156 218.726562 C 270.578125 205.753906 262.863281 194.664062 251.6875 187.496094 L 185.824219 145.25 C 170.027344 152.035156 156.742188 163.324219 147.363281 177.949219 C 137.347656 193.578125 132.699219 211.574219 133.898438 230.046875 Z M 268.277344 257.191406 L 268.296875 257.191406 Z M 96.679688 97.339844 C 93.121094 97.339844 89.535156 97.722656 85.972656 98.5 C 73.003906 101.332031 61.914062 109.046875 54.746094 120.222656 C 39.949219 143.292969 46.679688 174.097656 69.746094 188.898438 L 129.996094 227.539062 C 129.351562 209.226562 134.226562 191.449219 144.1875 175.910156 C 153.511719 161.367188 166.542969 149.980469 182.023438 142.8125 L 123.417969 105.222656 C 115.3125 100.023438 106.085938 97.339844 96.679688 97.339844 Z M 96.679688 97.339844 " fill-opacity="1" fill-rule="nonzero"/><g clip-path="url(#1027cf21f1)"><g clip-path="url(#717c894a72)"><g clip-path="url(#b110b0e1ae)"><path fill="#3ffcb7" d="M 225.066406 87.691406 C 227.304688 97.484375 221.179688 107.238281 211.394531 109.476562 C 201.597656 111.710938 191.855469 105.585938 189.617188 95.789062 C 187.382812 86.003906 193.507812 76.25 203.292969 74.015625 C 213.078125 71.78125 222.832031 77.90625 225.066406 87.691406 Z M 225.066406 87.691406 " fill-opacity="1" fill-rule="nonzero"/></g></g></g><g clip-path="url(#82e3ca6842)"><g clip-path="url(#32f7d3e9cd)"><g clip-path="url(#9911f80bd2)"><path fill="#3ffcb7" d="M 223.210938 260.414062 C 242.566406 249.464844 253.402344 227.867188 247.375 201.476562 C 242.433594 179.851562 215.292969 164.292969 195.699219 149.6875 C 213.273438 164.285156 231.738281 180.363281 236.308594 200.359375 C 242.121094 225.8125 236.195312 247.023438 223.210938 260.414062 Z M 287.34375 40.582031 C 246.488281 44.476562 242.433594 81.246094 230.222656 109.527344 C 217.933594 138.019531 181.25 110.09375 173.253906 103.546875 C 181.9375 131.464844 250.136719 155.613281 259.359375 195.992188 C 268.761719 237.132812 246.828125 268.652344 212.648438 276.460938 C 178.484375 284.269531 145.03125 265.402344 135.632812 224.261719 C 135.378906 223.160156 135.1875 222.027344 135.015625 220.878906 C 132.371094 259.109375 152.617188 291.289062 185.882812 298.359375 C 223.886719 306.4375 265.582031 289.34375 280.476562 239.902344 C 290.417969 206.910156 268.480469 165.894531 255.878906 132.042969 C 234.308594 66.917969 287.34375 40.582031 287.34375 40.582031 Z M 287.34375 40.582031 " fill-opacity="1" fill-rule="nonzero"/></g></g></g><g clip-path="url(#29cec5d001)"><path fill="#3ffcb7" d="M 53.390625 204.96875 C 53.390625 205.550781 53.363281 206.128906 53.304688 206.707031 C 53.25 207.285156 53.164062 207.859375 53.050781 208.425781 C 52.9375 208.996094 52.796875 209.558594 52.628906 210.113281 C 52.457031 210.671875 52.261719 211.214844 52.042969 211.753906 C 51.820312 212.289062 51.570312 212.8125 51.296875 213.324219 C 51.023438 213.835938 50.726562 214.335938 50.402344 214.816406 C 50.082031 215.300781 49.734375 215.765625 49.367188 216.214844 C 49 216.664062 48.609375 217.09375 48.199219 217.503906 C 47.789062 217.914062 47.359375 218.304688 46.910156 218.671875 C 46.460938 219.039062 45.996094 219.386719 45.511719 219.707031 C 45.03125 220.03125 44.53125 220.328125 44.019531 220.601562 C 43.507812 220.875 42.984375 221.125 42.449219 221.34375 C 41.910156 221.566406 41.367188 221.761719 40.808594 221.933594 C 40.253906 222.101562 39.691406 222.242188 39.121094 222.355469 C 38.554688 222.46875 37.980469 222.550781 37.402344 222.609375 C 36.824219 222.667969 36.246094 222.695312 35.664062 222.695312 C 35.082031 222.695312 34.503906 222.667969 33.925781 222.609375 C 33.347656 222.550781 32.777344 222.46875 32.207031 222.355469 C 31.636719 222.242188 31.074219 222.101562 30.519531 221.933594 C 29.964844 221.761719 29.417969 221.566406 28.878906 221.34375 C 28.34375 221.125 27.820312 220.875 27.308594 220.601562 C 26.796875 220.328125 26.296875 220.03125 25.816406 219.707031 C 25.332031 219.386719 24.867188 219.039062 24.417969 218.671875 C 23.96875 218.304688 23.539062 217.914062 23.128906 217.503906 C 22.71875 217.09375 22.328125 216.664062 21.960938 216.214844 C 21.59375 215.765625 21.246094 215.300781 20.925781 214.816406 C 20.601562 214.335938 20.304688 213.835938 20.03125 213.324219 C 19.757812 212.8125 19.507812 212.289062 19.289062 211.753906 C 19.066406 211.214844 18.871094 210.671875 18.703125 210.113281 C 18.53125 209.558594 18.390625 208.996094 18.277344 208.425781 C 18.164062 207.859375 18.082031 207.285156 18.023438 206.707031 C 17.964844 206.128906 17.9375 205.550781 17.9375 204.96875 C 17.9375 204.386719 17.964844 203.808594 18.023438 203.230469 C 18.082031 202.652344 18.164062 202.078125 18.277344 201.511719 C 18.390625 200.941406 18.53125 200.378906 18.703125 199.824219 C 18.871094 199.269531 19.066406 198.722656 19.289062 198.183594 C 19.507812 197.648438 19.757812 197.125 20.03125 196.613281 C 20.304688 196.101562 20.601562 195.601562 20.925781 195.121094 C 21.246094 194.636719 21.59375 194.171875 21.960938 193.722656 C 22.328125 193.273438 22.71875 192.84375 23.128906 192.433594 C 23.539062 192.023438 23.96875 191.632812 24.417969 191.265625 C 24.867188 190.898438 25.332031 190.550781 25.816406 190.230469 C 26.296875 189.90625 26.796875 189.609375 27.308594 189.335938 C 27.820312 189.0625 28.34375 188.8125 28.878906 188.59375 C 29.417969 188.371094 29.964844 188.175781 30.519531 188.007812 C 31.074219 187.835938 31.636719 187.695312 32.207031 187.582031 C 32.777344 187.46875 33.347656 187.386719 33.925781 187.328125 C 34.503906 187.269531 35.082031 187.242188 35.664062 187.242188 C 36.246094 187.242188 36.824219 187.269531 37.402344 187.328125 C 37.980469 187.386719 38.554688 187.46875 39.121094 187.582031 C 39.691406 187.695312 40.253906 187.835938 40.808594 188.007812 C 41.367188 188.175781 41.910156 188.371094 42.449219 188.59375 C 42.984375 188.8125 43.507812 189.0625 44.019531 189.335938 C 44.53125 189.609375 45.03125 189.90625 45.511719 190.230469 C 45.996094 190.550781 46.460938 190.898438 46.910156 191.265625 C 47.359375 191.632812 47.789062 192.023438 48.199219 192.433594 C 48.609375 192.84375 49 193.273438 49.367188 193.722656 C 49.734375 194.171875 50.082031 194.636719 50.402344 195.121094 C 50.726562 195.601562 51.023438 196.101562 51.296875 196.613281 C 51.570312 197.125 51.820312 197.648438 52.042969 198.183594 C 52.261719 198.722656 52.457031 199.269531 52.628906 199.824219 C 52.796875 200.378906 52.9375 200.941406 53.050781 201.511719 C 53.164062 202.078125 53.25 202.652344 53.304688 203.230469 C 53.363281 203.808594 53.390625 204.386719 53.390625 204.96875 Z M 53.390625 204.96875 " fill-opacity="1" fill-rule="nonzero"/></g></svg>