<svg xmlns="http://www.w3.org/2000/svg" xmlns:xlink="http://www.w3.org/1999/xlink" width="480" zoomAndPan="magnify" viewBox="0 0 360 359.999987" height="480" preserveAspectRatio="xMidYMid meet" version="1.0"><defs><clipPath id="1b2bf272ae"><path d="M 34 36 L 323 36 L 323 327.75 L 34 327.75 Z M 34 36 " clip-rule="nonzero"/></clipPath></defs><g clip-path="url(#1b2bf272ae)"><path fill="#3ffcb7" d="M 98.859375 115.882812 C 98.859375 114.578125 98.890625 113.277344 98.957031 111.972656 C 99.023438 110.667969 99.121094 109.367188 99.25 108.070312 C 99.378906 106.773438 99.539062 105.476562 99.730469 104.1875 C 99.925781 102.894531 100.148438 101.609375 100.402344 100.332031 C 100.660156 99.050781 100.945312 97.78125 101.265625 96.515625 C 101.582031 95.25 101.929688 93.992188 102.308594 92.742188 C 102.6875 91.496094 103.097656 90.257812 103.539062 89.027344 C 103.980469 87.800781 104.449219 86.582031 104.949219 85.378906 C 105.449219 84.171875 105.980469 82.980469 106.539062 81.800781 C 107.09375 80.621094 107.683594 79.457031 108.296875 78.304688 C 108.914062 77.15625 109.554688 76.019531 110.226562 74.902344 C 110.898438 73.785156 111.597656 72.679688 112.320312 71.597656 C 113.046875 70.511719 113.796875 69.445312 114.574219 68.398438 C 115.351562 67.351562 116.15625 66.320312 116.984375 65.3125 C 117.8125 64.304688 118.664062 63.316406 119.539062 62.351562 C 120.417969 61.382812 121.316406 60.4375 122.238281 59.515625 C 123.160156 58.59375 124.105469 57.691406 125.070312 56.816406 C 126.039062 55.941406 127.027344 55.089844 128.035156 54.261719 C 129.042969 53.433594 130.070312 52.628906 131.117188 51.851562 C 132.167969 51.074219 133.234375 50.324219 134.316406 49.597656 C 135.402344 48.871094 136.503906 48.175781 137.621094 47.503906 C 138.742188 46.832031 139.875 46.1875 141.027344 45.574219 C 142.175781 44.957031 143.34375 44.371094 144.519531 43.8125 C 145.699219 43.253906 146.894531 42.722656 148.097656 42.222656 C 149.304688 41.722656 150.519531 41.253906 151.75 40.8125 C 152.976562 40.371094 154.214844 39.960938 155.460938 39.582031 C 156.710938 39.203125 157.96875 38.855469 159.234375 38.535156 C 160.5 38.21875 161.769531 37.929688 163.050781 37.675781 C 164.332031 37.417969 165.617188 37.195312 166.90625 37.003906 C 168.195312 36.808594 169.492188 36.648438 170.789062 36.519531 C 172.085938 36.390625 173.386719 36.292969 174.691406 36.226562 C 175.996094 36.160156 177.296875 36.128906 178.601562 36.125 C 284.007812 39.855469 284.214844 191.578125 178.875 195.628906 C 177.566406 195.632812 176.257812 195.601562 174.953125 195.542969 C 173.648438 195.480469 172.34375 195.386719 171.042969 195.261719 C 169.738281 195.136719 168.441406 194.980469 167.148438 194.792969 C 165.855469 194.601562 164.566406 194.382812 163.285156 194.128906 C 162 193.878906 160.722656 193.59375 159.457031 193.277344 C 158.1875 192.964844 156.925781 192.617188 155.671875 192.242188 C 154.421875 191.863281 153.179688 191.457031 151.949219 191.019531 C 150.714844 190.582031 149.496094 190.113281 148.285156 189.613281 C 147.078125 189.117188 145.882812 188.589844 144.699219 188.03125 C 143.515625 187.476562 142.347656 186.890625 141.191406 186.277344 C 140.039062 185.664062 138.898438 185.019531 137.777344 184.351562 C 136.652344 183.679688 135.546875 182.984375 134.457031 182.257812 C 133.371094 181.535156 132.300781 180.785156 131.25 180.007812 C 130.195312 179.230469 129.164062 178.425781 128.152344 177.601562 C 127.140625 176.773438 126.148438 175.921875 125.179688 175.042969 C 124.207031 174.167969 123.261719 173.269531 122.335938 172.34375 C 121.40625 171.421875 120.503906 170.476562 119.625 169.507812 C 118.746094 168.542969 117.890625 167.554688 117.058594 166.542969 C 116.226562 165.535156 115.421875 164.503906 114.640625 163.457031 C 113.859375 162.40625 113.105469 161.339844 112.378906 160.253906 C 111.652344 159.167969 110.949219 158.0625 110.277344 156.945312 C 109.601562 155.824219 108.957031 154.6875 108.335938 153.535156 C 107.71875 152.382812 107.128906 151.214844 106.570312 150.035156 C 106.007812 148.851562 105.476562 147.660156 104.976562 146.453125 C 104.472656 145.246094 104 144.023438 103.558594 142.792969 C 103.117188 141.5625 102.707031 140.324219 102.324219 139.074219 C 101.941406 137.820312 101.59375 136.5625 101.273438 135.292969 C 100.953125 134.027344 100.667969 132.75 100.410156 131.46875 C 100.152344 130.1875 99.929688 128.898438 99.734375 127.605469 C 99.542969 126.3125 99.378906 125.015625 99.25 123.714844 C 99.121094 122.414062 99.023438 121.109375 98.957031 119.804688 C 98.890625 118.5 98.859375 117.191406 98.859375 115.882812 Z M 259.316406 195.667969 C 258.257812 195.015625 257.125 194.527344 255.921875 194.203125 C 254.71875 193.878906 253.492188 193.734375 252.25 193.765625 C 251.003906 193.796875 249.789062 194.003906 248.601562 194.382812 C 247.417969 194.765625 246.308594 195.308594 245.28125 196.011719 C 242.90625 197.941406 240.453125 199.765625 237.917969 201.480469 C 235.386719 203.199219 232.785156 204.804688 230.113281 206.296875 C 227.441406 207.792969 224.714844 209.167969 221.921875 210.425781 C 219.132812 211.683594 216.296875 212.816406 213.410156 213.832031 C 210.523438 214.84375 207.597656 215.730469 204.632812 216.492188 C 201.667969 217.253906 198.679688 217.886719 195.660156 218.390625 C 192.640625 218.894531 189.605469 219.265625 186.558594 219.507812 C 183.507812 219.75 180.453125 219.859375 177.390625 219.835938 C 174.332031 219.816406 171.277344 219.664062 168.230469 219.378906 C 165.1875 219.09375 162.15625 218.679688 159.144531 218.132812 C 156.136719 217.585938 153.152344 216.914062 150.199219 216.109375 C 147.25 215.308594 144.335938 214.378906 141.460938 213.324219 C 138.589844 212.273438 135.769531 211.097656 132.996094 209.800781 C 130.226562 208.503906 127.515625 207.089844 124.863281 205.558594 C 122.214844 204.027344 119.636719 202.386719 117.128906 200.632812 C 114.621094 198.882812 112.191406 197.023438 109.84375 195.0625 C 108.957031 194.65625 108.039062 194.359375 107.082031 194.175781 C 106.121094 193.992188 105.15625 193.925781 104.183594 193.976562 C 103.210938 194.027344 102.257812 194.195312 101.324219 194.476562 C 100.394531 194.761719 99.507812 195.152344 98.667969 195.648438 C 96.21875 197.277344 93.820312 198.984375 91.472656 200.761719 C 89.128906 202.539062 86.839844 204.386719 84.609375 206.304688 C 82.375 208.226562 80.207031 210.210938 78.09375 212.265625 C 75.984375 214.316406 73.941406 216.433594 71.960938 218.609375 C 69.984375 220.789062 68.074219 223.027344 66.230469 225.324219 C 64.390625 227.621094 62.621094 229.96875 60.925781 232.375 C 59.226562 234.78125 57.609375 237.238281 56.0625 239.742188 C 54.515625 242.246094 53.050781 244.796875 51.664062 247.394531 C 50.273438 249.988281 48.96875 252.625 47.742188 255.300781 C 46.515625 257.976562 45.375 260.6875 44.316406 263.433594 C 43.257812 266.179688 42.285156 268.957031 41.394531 271.765625 C 40.507812 274.570312 39.707031 277.402344 38.996094 280.257812 C 38.28125 283.113281 37.65625 285.988281 37.121094 288.882812 C 36.585938 291.777344 36.140625 294.683594 35.78125 297.605469 C 35.425781 300.527344 35.160156 303.457031 34.984375 306.394531 C 34.808594 309.335938 34.722656 312.273438 34.726562 315.21875 C 34.726562 316.023438 34.804688 316.820312 34.960938 317.609375 C 35.117188 318.398438 35.347656 319.164062 35.65625 319.910156 C 35.964844 320.652344 36.34375 321.359375 36.789062 322.027344 C 37.234375 322.695312 37.742188 323.316406 38.3125 323.882812 C 38.882812 324.453125 39.5 324.960938 40.167969 325.40625 C 40.839844 325.855469 41.546875 326.230469 42.289062 326.539062 C 43.03125 326.847656 43.796875 327.078125 44.585938 327.238281 C 45.375 327.394531 46.171875 327.472656 46.976562 327.472656 L 310.636719 327.472656 C 311.441406 327.472656 312.238281 327.394531 313.027344 327.238281 C 313.816406 327.078125 314.582031 326.847656 315.324219 326.539062 C 316.070312 326.230469 316.773438 325.855469 317.445312 325.40625 C 318.113281 324.960938 318.730469 324.453125 319.300781 323.882812 C 319.871094 323.316406 320.378906 322.695312 320.824219 322.027344 C 321.273438 321.359375 321.648438 320.652344 321.957031 319.910156 C 322.265625 319.164062 322.496094 318.398438 322.652344 317.609375 C 322.808594 316.820312 322.886719 316.023438 322.886719 315.21875 C 322.886719 312.28125 322.792969 309.347656 322.613281 306.417969 C 322.429688 303.484375 322.160156 300.5625 321.800781 297.648438 C 321.441406 294.730469 320.992188 291.832031 320.457031 288.945312 C 319.921875 286.054688 319.296875 283.1875 318.585938 280.339844 C 317.875 277.488281 317.074219 274.664062 316.191406 271.863281 C 315.308594 269.0625 314.339844 266.289062 313.285156 263.550781 C 312.234375 260.808594 311.097656 258.101562 309.878906 255.429688 C 308.660156 252.753906 307.363281 250.121094 305.984375 247.53125 C 304.605469 244.9375 303.148438 242.386719 301.613281 239.882812 C 300.078125 237.378906 298.46875 234.925781 296.785156 232.519531 C 295.101562 230.113281 293.347656 227.757812 291.519531 225.460938 C 289.691406 223.160156 287.792969 220.921875 285.832031 218.738281 C 283.867188 216.554688 281.835938 214.433594 279.742188 212.375 C 277.648438 210.3125 275.496094 208.320312 273.277344 206.390625 C 271.0625 204.464844 268.792969 202.605469 266.460938 200.816406 C 264.132812 199.027344 261.753906 197.308594 259.316406 195.667969 Z M 259.316406 195.667969 " fill-opacity="1" fill-rule="nonzero"/></g></svg>