<svg xmlns="http://www.w3.org/2000/svg" xmlns:xlink="http://www.w3.org/1999/xlink" width="480" zoomAndPan="magnify" viewBox="0 0 360 359.999987" height="480" preserveAspectRatio="xMidYMid meet" version="1.0"><defs><clipPath id="049a980b11"><path d="M 36 48.96875 L 318.75 48.96875 L 318.75 310.71875 L 36 310.71875 Z M 36 48.96875 " clip-rule="nonzero"/></clipPath></defs><g clip-path="url(#049a980b11)"><path fill="#3affba" d="M 121.054688 107.445312 L 112.9375 90.714844 C 112.441406 90.050781 111.945312 89.554688 111.28125 89.222656 C 117.410156 83.757812 124.203125 78.953125 131.65625 75.308594 C 131.820312 75.640625 131.820312 75.804688 131.988281 75.972656 L 140.269531 92.703125 C 141.097656 94.359375 143.085938 95.019531 144.742188 94.191406 C 146.234375 93.363281 147.0625 91.375 146.234375 89.71875 L 137.949219 73.15625 C 137.785156 72.988281 137.785156 72.824219 137.617188 72.65625 C 147.890625 68.683594 158.820312 66.363281 170.417969 66.363281 L 174.226562 66.363281 C 174.226562 66.695312 174.226562 67.027344 174.226562 67.191406 L 174.226562 85.910156 C 174.226562 87.730469 175.71875 89.222656 177.539062 89.222656 C 179.363281 89.222656 180.851562 87.730469 180.851562 85.910156 L 180.851562 67.191406 C 180.851562 67.027344 180.6875 66.695312 180.6875 66.363281 L 184.496094 66.363281 C 196.09375 66.363281 207.023438 68.683594 216.964844 72.65625 C 216.796875 72.824219 216.632812 73.15625 216.632812 73.320312 L 208.351562 90.050781 C 207.523438 91.707031 208.183594 93.695312 209.839844 94.359375 C 211.496094 95.1875 213.484375 94.523438 214.148438 92.867188 L 222.429688 76.300781 C 222.597656 75.972656 222.761719 75.472656 222.761719 75.144531 C 230.382812 78.789062 237.339844 83.589844 243.632812 89.222656 C 242.804688 89.386719 242.140625 90.050781 241.644531 90.878906 L 233.527344 107.445312 C 232.699219 109.101562 233.363281 111.089844 235.019531 111.917969 C 236.511719 112.746094 238.5 112.082031 239.328125 110.425781 L 247.609375 93.695312 C 247.773438 93.53125 247.773438 93.363281 247.773438 93.199219 C 263.34375 109.101562 272.953125 130.964844 272.953125 154.820312 C 272.953125 156.640625 271.460938 158.132812 269.640625 158.132812 L 85.273438 158.132812 C 83.453125 158.132812 81.960938 156.640625 81.960938 154.820312 C 81.960938 131.132812 91.570312 109.433594 106.808594 93.53125 L 106.972656 93.695312 L 115.257812 110.261719 C 116.085938 111.917969 118.074219 112.578125 119.5625 111.917969 C 121.21875 111.089844 121.882812 109.101562 121.054688 107.445312 Z M 252.082031 48.96875 L 102.832031 48.96875 C 84.613281 48.96875 67.882812 56.425781 55.789062 68.515625 C 43.695312 80.609375 36.078125 97.339844 36.078125 115.726562 L 36.078125 244.269531 C 36.078125 262.492188 43.695312 279.222656 55.789062 291.3125 C 67.882812 303.40625 84.613281 311.023438 102.832031 311.023438 L 252.082031 311.023438 C 270.46875 311.023438 287.199219 303.40625 299.289062 291.3125 C 311.382812 279.222656 318.835938 262.492188 318.835938 244.269531 L 318.835938 115.726562 C 318.835938 97.339844 311.382812 80.609375 299.289062 68.515625 C 287.199219 56.425781 270.46875 48.96875 252.082031 48.96875 Z M 252.082031 48.96875 " fill-opacity="1" fill-rule="evenodd"/></g><path fill="#3affba" d="M 174.226562 100.15625 L 170.085938 139.910156 C 170.085938 140.078125 170.085938 140.242188 170.085938 140.574219 C 170.085938 142.394531 171.578125 143.886719 173.398438 143.886719 L 182.011719 143.886719 C 183.835938 143.554688 185.160156 142.066406 184.992188 140.242188 L 180.851562 100.320312 C 180.6875 98.832031 179.527344 97.339844 177.871094 97.175781 C 176.050781 97.007812 174.390625 98.332031 174.226562 100.15625 Z M 174.226562 100.15625 " fill-opacity="1" fill-rule="evenodd"/></svg>