<svg xmlns="http://www.w3.org/2000/svg" xmlns:xlink="http://www.w3.org/1999/xlink" width="295" zoomAndPan="magnify" viewBox="0 0 221.25 466.499983" height="622" preserveAspectRatio="xMidYMid meet" version="1.0"><defs><filter x="0%" y="0%" width="100%" height="100%" id="4fa477283d"><feColorMatrix values="0 0 0 0 1 0 0 0 0 1 0 0 0 0 1 0 0 0 1 0" color-interpolation-filters="sRGB"/></filter><clipPath id="a9f5cdf257"><path d="M 0 0.539062 L 220.503906 0.539062 L 220.503906 465.460938 L 0 465.460938 Z M 0 0.539062 " clip-rule="nonzero"/></clipPath><clipPath id="73b8f88aea"><path d="M 31 0.539062 L 220.503906 0.539062 L 220.503906 271 L 31 271 Z M 31 0.539062 " clip-rule="nonzero"/></clipPath><mask id="9ee5535210"><g filter="url(#4fa477283d)"><rect x="-22.125" width="265.5" fill="#000000" y="-46.649998" height="559.79998" fill-opacity="0.18"/></g></mask><clipPath id="599f327b0c"><path d="M 57 0.539062 L 189.503906 0.539062 L 189.503906 211 L 57 211 Z M 57 0.539062 " clip-rule="nonzero"/></clipPath><clipPath id="b944587354"><path d="M -26.242188 -122.324219 L 378.964844 -238.632812 L 502.285156 191 L 97.078125 307.3125 Z M -26.242188 -122.324219 " clip-rule="nonzero"/></clipPath><clipPath id="efd2c7238f"><path d="M -26.242188 -122.324219 L 378.964844 -238.632812 L 502.285156 191 L 97.078125 307.3125 Z M -26.242188 -122.324219 " clip-rule="nonzero"/></clipPath><clipPath id="e1a04a3c90"><rect x="0" width="190" y="0" height="271"/></clipPath></defs><g clip-path="url(#a9f5cdf257)"><path fill="#ffffff" d="M 0 0.539062 L 220.503906 0.539062 L 220.503906 465.460938 L 0 465.460938 Z M 0 0.539062 " fill-opacity="1" fill-rule="nonzero"/><path fill="#3ffcb7" d="M 0 0.539062 L 220.503906 0.539062 L 220.503906 465.460938 L 0 465.460938 Z M 0 0.539062 " fill-opacity="1" fill-rule="nonzero"/></g><g clip-path="url(#73b8f88aea)"><g mask="url(#9ee5535210)"><g transform="matrix(1, 0, 0, 1, 31, 0.00000000000005651)"><g clip-path="url(#e1a04a3c90)"><g clip-path="url(#599f327b0c)"><g clip-path="url(#b944587354)"><g clip-path="url(#efd2c7238f)"><path fill="#ffffff" d="M 83.191406 25.214844 C 181.429688 -54.972656 62.808594 -82.308594 132.59375 -135.125 C 202.378906 -187.945312 281.679688 -130.203125 295.574219 -29.792969 C 304.65625 36.027344 478.535156 108.632812 375.960938 182.769531 C 273.382812 256.910156 235.175781 157.6875 154.808594 165.746094 C 59.171875 175.253906 32.433594 66.617188 83.191406 25.214844 Z M 83.191406 25.214844 " fill-opacity="1" fill-rule="nonzero"/></g></g></g></g></g></g></g></svg>